<svg width="45" height="45" viewBox="0 0 45 45" fill="none" xmlns="http://www.w3.org/2000/svg">
<circle cx="22.4645" cy="22.1128" r="22.1128" fill="#DD9331"/>
<path d="M17.4795 31.2889C17.2837 32.0808 17.7604 32.8824 18.5446 33.0799C18.664 33.1104 18.7835 33.1237 18.9015 33.1237C19.5571 33.1237 20.1538 32.6761 20.3208 32.0056L21.4756 27.3461L19.0607 24.9105L17.4795 31.2889ZM18.1608 22.2385L20.0439 14.8961C20.1441 14.5075 19.9003 14.1139 19.4986 14.0165C17.4909 13.531 15.4563 14.7119 14.9544 16.6547L13.7982 21.1832C13.698 21.5717 13.9419 21.9653 14.3436 22.0627L17.2517 22.7665C17.6538 22.8634 18.0606 22.6271 18.1608 22.2385ZM30.6128 16.8804H29.8808C29.4763 16.8804 29.1488 17.2108 29.1488 17.6187V18.3571H27.5588L25.4185 16.1983C24.9111 15.6856 24.2354 15.4037 23.517 15.4037C22.2808 15.4037 21.2079 16.2482 20.9078 17.4581L19.6761 22.4291C19.6148 22.6765 19.6181 22.9357 19.6856 23.1815C19.7531 23.4273 19.8826 23.6512 20.0613 23.8315L24.0244 27.8288V31.6475C24.0244 32.4629 24.6801 33.1242 25.4885 33.1242C26.297 33.1242 26.9526 32.4629 26.9526 31.6475V27.8288C26.9526 27.0402 26.6479 26.2986 26.0948 25.7407L23.9526 23.58C23.9595 23.557 23.975 23.539 23.981 23.515L24.891 19.843L25.9172 20.8781C26.1918 21.155 26.5642 21.311 26.9522 21.311H29.1483V32.3863C29.1483 32.7943 29.4759 33.1247 29.8803 33.1247H30.6124C31.0168 33.1247 31.3444 32.7943 31.3444 32.3863V17.6187C31.3449 17.2108 31.0173 16.8804 30.6128 16.8804ZM24.7565 13.927C25.9694 13.927 26.9526 12.9353 26.9526 11.7119C26.9526 10.4885 25.9694 9.49683 24.7565 9.49683C23.5436 9.49683 22.5604 10.4885 22.5604 11.7119C22.5604 12.9353 23.5436 13.927 24.7565 13.927Z" fill="#1D4036"/>
</svg>
