<svg width="45" height="45" viewBox="0 0 45 45" fill="none" xmlns="http://www.w3.org/2000/svg">
<circle cx="22.8162" cy="22.1128" r="22.1128" fill="#DD9331"/>
<path d="M33.1077 14.6769H13.2262C13.0252 14.6769 12.8745 14.8403 12.8745 15.0289V30.6553C12.8745 30.8564 13.0378 31.0073 13.2262 31.0073H33.1077C33.3087 31.0073 33.4594 30.8439 33.4594 30.6553V15.0289C33.4594 14.8277 33.2961 14.6769 33.1077 14.6769ZM16.4288 30.3033H13.5904V27.1101H16.4288V30.3033ZM16.4288 26.3935H13.5904V23.2004H16.4288V26.3935ZM16.4288 22.4838H13.5904V19.2906H16.4288V22.4838ZM16.4288 18.5741H13.5904V15.3809H16.4288V18.5741ZM25.8484 23.1375L21.9424 25.6267C21.9424 25.6267 21.8168 25.677 21.754 25.677C21.6912 25.677 21.641 25.6644 21.5782 25.6393C21.4652 25.5764 21.3898 25.4633 21.3898 25.325V20.3466C21.3898 20.2209 21.4652 20.0952 21.5782 20.0324C21.6912 19.9695 21.8294 19.9695 21.9424 20.0324L25.8484 22.5215C25.9489 22.5844 26.0117 22.6975 26.0117 22.8232C26.0117 22.949 25.9489 23.0621 25.8484 23.125V23.1375ZM32.7561 30.3033H29.9176V27.1101H32.7561V30.3033ZM32.7561 26.3935H29.9176V23.2004H32.7561V26.3935ZM32.7561 22.4838H29.9176V19.2906H32.7561V22.4838ZM32.7561 18.5741H29.9176V15.3809H32.7561V18.5741Z" fill="#1D4036"/>
</svg>
