<svg width="45" height="45" viewBox="0 0 45 45" fill="none" xmlns="http://www.w3.org/2000/svg">
<circle cx="22.1128" cy="22.1128" r="22.1128" fill="#DD9331"/>
<path d="M31.3135 25.1153C31.3135 25.1153 31.3135 25.065 31.3135 25.0524V11.0729C31.3135 10.8466 31.2005 10.6454 30.9995 10.5072C30.7986 10.3689 30.5348 10.3311 30.2962 10.3814L20.2612 12.7323C19.9096 12.8203 19.6584 13.0969 19.6584 13.4237V17.1575C19.6207 17.2706 19.6207 17.3964 19.6584 17.5221V26.5107C18.5657 26.1461 17.0963 26.2467 15.6896 26.9004C13.4917 27.9062 12.4116 29.7542 13.2154 31.1245C13.7052 31.9416 14.7351 32.3816 15.9659 32.3816C16.7823 32.3816 17.6866 32.1931 18.5657 31.7908C19.5579 31.3382 20.3617 30.6845 20.839 29.9553C21.2032 29.4022 21.3539 28.8113 21.2786 28.2833V17.8741L29.6808 15.9003V23.569C29.4045 23.481 29.0905 23.4181 28.7765 23.393C27.822 23.3175 26.7419 23.5187 25.7623 23.9713C24.7701 24.4238 23.9663 25.0776 23.489 25.8067C22.949 26.6239 22.8862 27.5039 23.3006 28.1953C23.7151 28.8867 24.5566 29.3393 25.6367 29.4273C25.7748 29.4273 25.913 29.4399 26.0511 29.4399C26.8926 29.4399 27.8094 29.2387 28.6635 28.849C29.6557 28.3965 30.4595 27.7427 30.9367 27.0136C31.3512 26.3724 31.4894 25.6936 31.3261 25.1027L31.3135 25.1153ZM29.6934 12.0032V14.4295L21.2911 16.4032V13.9769L29.6934 12.0032Z" fill="#1D4036"/>
</svg>
