<svg width="46" height="45" viewBox="0 0 46 45" fill="none" xmlns="http://www.w3.org/2000/svg">
<circle cx="22.9921" cy="22.1128" r="22.1128" fill="#DD9331"/>
<path d="M15.9735 16.9898L21.4243 17.6938C21.6127 18.1715 22.5672 20.5601 22.7556 20.9875C21.1731 21.767 19.6032 22.5464 18.0207 23.3258C18.5733 23.2253 19.1259 23.175 19.6785 23.175C20.407 23.175 21.1229 23.263 21.8136 23.439C23.1952 23.791 24.4386 24.3567 25.6443 24.8973C26.7118 25.375 27.7291 25.8402 28.7464 26.1042C28.8846 26.1419 29.0227 26.1796 29.1609 26.2047C27.9552 23.7407 24.7274 17.1029 24.0869 15.6446C23.7855 14.9532 23.371 14.7018 22.7933 14.6263L16.388 13.7966C15.5088 13.6835 14.6924 14.3121 14.5794 15.1921C14.4664 16.0721 15.0943 16.8892 15.9735 17.0024V16.9898Z" fill="#1D4036"/>
<path d="M13.3988 28.4927C13.5747 28.6184 13.7756 28.6813 13.9766 28.6813C14.0268 28.6813 14.0645 28.6813 14.1022 28.6813C14.3659 28.6436 14.6171 28.5053 14.7804 28.279C15.4335 27.3739 16.4257 26.6699 17.6062 26.2676C18.2719 26.0413 18.9752 25.9281 19.666 25.9281C22.1653 25.9281 24.3004 27.4242 26.5485 28.279C27.7542 28.7442 29.0102 29.0836 30.3792 29.0836C30.9569 29.0836 31.5472 29.0207 32.1626 28.8824C33.6195 28.5556 34.8629 27.8767 35.7671 26.8961C35.9807 26.6573 36.1816 26.4184 36.3449 26.1544C36.6463 25.6893 36.5207 25.0733 36.056 24.7716C35.8802 24.6584 35.6918 24.6081 35.5034 24.6081C35.1768 24.6081 34.8629 24.7716 34.6619 25.0607C34.5866 25.1738 34.4986 25.287 34.4107 25.4001C33.7828 26.1419 32.8408 26.6824 31.723 26.9339C30.6806 27.1601 29.5377 27.0973 28.5204 26.8333C27.4403 26.5567 26.3978 26.079 25.2926 25.5887C24.112 25.0607 22.9063 24.5076 21.5876 24.1807C20.9596 24.0173 20.3065 23.9418 19.6409 23.9418C18.7366 23.9418 17.8198 24.0927 16.9406 24.3818C16.1745 24.6333 15.4711 24.9978 14.8306 25.4378C14.165 25.9156 13.5872 26.4687 13.1225 27.1099C13.0974 27.1476 13.0723 27.1979 13.0472 27.2356C12.8337 27.663 12.9467 28.2162 13.3612 28.5053L13.3988 28.4927Z" fill="#1D4036"/>
<path d="M35.0512 20.3087C35.0512 22.2573 33.4687 23.8413 31.522 23.8413C29.5753 23.8413 27.9928 22.2573 27.9928 20.3087C27.9928 18.3601 29.5753 16.7761 31.522 16.7761C33.4687 16.7761 35.0512 18.3601 35.0512 20.3087Z" fill="#1D4036"/>
</svg>
