<svg width="45" height="45" viewBox="0 0 45 45" fill="none" xmlns="http://www.w3.org/2000/svg">
<circle cx="22.2887" cy="22.1128" r="22.1128" fill="#DD9331"/>
<path d="M17.8704 32.5594H17.5439C17.1797 32.396 17.0666 32.1068 17.0792 31.7171C17.1043 31.2143 17.0792 30.724 17.0792 30.2211C17.0792 30.1583 17.0792 30.0954 17.0792 30.02C16.4386 30.02 15.8484 30.02 15.2455 30.02C14.919 30.02 14.6678 29.8188 14.605 29.5171C14.5924 29.4417 14.605 29.3537 14.605 29.2657C14.605 28.6874 14.605 28.1217 14.605 27.5308C14.0272 27.5308 13.4621 27.5182 12.9095 27.5308C12.5201 27.5434 12.2438 27.4302 12.068 27.0657V26.7388C12.2312 26.3742 12.5201 26.2611 12.9095 26.2736C13.4118 26.2988 13.9016 26.2736 14.404 26.2736H14.5924V25.0291C14.0272 25.0291 13.4621 25.0165 12.9095 25.0291C12.5201 25.0416 12.2438 24.9285 12.068 24.5639V24.2371C12.2312 23.8725 12.5201 23.7593 12.9095 23.7719C13.4118 23.797 13.9016 23.7719 14.404 23.7719H14.5924V22.5273C14.0272 22.5273 13.4621 22.5148 12.9095 22.5273C12.5201 22.5399 12.2438 22.4268 12.068 22.0622V21.7353C12.2312 21.3707 12.5201 21.2576 12.9095 21.2702C13.4118 21.2953 13.9016 21.2702 14.404 21.2702H14.5924V20.0256C14.0272 20.0256 13.4621 20.013 12.9095 20.0256C12.5201 20.0382 12.2438 19.925 12.068 19.5604V19.2336C12.2312 18.869 12.5201 18.7559 12.9095 18.7684C13.4118 18.7936 13.9016 18.7684 14.404 18.7684H14.5924V17.5239C14.0272 17.5239 13.4621 17.5113 12.9095 17.5239C12.5201 17.5364 12.2438 17.4233 12.068 17.0587V16.7318C12.2312 16.3673 12.5201 16.2541 12.9095 16.2667C13.4118 16.2918 13.9016 16.2667 14.404 16.2667C14.4668 16.2667 14.5296 16.2667 14.605 16.2667C14.605 15.6256 14.605 15.0221 14.605 14.4313C14.605 14.0415 14.8687 13.7901 15.2581 13.7775C15.4465 13.7775 15.6348 13.7775 15.8232 13.7775C16.2377 13.7775 16.6647 13.7775 17.1043 13.7775C17.1043 13.1364 17.1043 12.5204 17.1043 11.9044C17.1043 11.5147 17.368 11.2381 17.7197 11.2381C18.0714 11.2381 18.3477 11.5147 18.3477 11.8918C18.3477 12.445 18.3477 12.9855 18.3477 13.5387C18.3477 13.6141 18.3477 13.6895 18.3477 13.7524H19.5911C19.5911 13.6518 19.5911 13.5764 19.5911 13.4884C19.5911 12.9352 19.5911 12.3947 19.5911 11.8415C19.5911 11.5147 19.8422 11.2632 20.1562 11.2255C20.4702 11.2004 20.7591 11.4141 20.8219 11.7284C20.8344 11.8164 20.8219 11.9044 20.8219 11.9924C20.8219 12.5707 20.8219 13.149 20.8219 13.7398H22.0653C22.0653 13.1238 22.0653 12.5078 22.0653 11.9044C22.0653 11.5021 22.329 11.2255 22.6932 11.2255C23.0575 11.2255 23.3086 11.5021 23.3212 11.9044C23.3212 12.4575 23.3212 12.9981 23.3212 13.5512C23.3212 13.6141 23.3212 13.6895 23.3212 13.7524H24.552C24.552 13.677 24.552 13.6141 24.552 13.5387C24.552 12.9855 24.552 12.4324 24.552 11.8792C24.552 11.5021 24.8158 11.2381 25.1674 11.2255C25.5191 11.2255 25.7954 11.5021 25.7954 11.8792C25.7954 12.2438 25.7954 12.5958 25.7954 12.9604C25.7954 13.2244 25.7954 13.4884 25.7954 13.7398H27.0388C27.0388 13.1112 27.0388 12.5078 27.0388 11.9044C27.0388 11.5021 27.3025 11.2255 27.6668 11.2255C28.031 11.2255 28.2822 11.5021 28.2822 11.9169C28.2822 12.4701 28.2822 13.0107 28.2822 13.5638C28.2822 13.6267 28.2822 13.6895 28.2822 13.765C28.9101 13.765 29.5004 13.7524 30.0907 13.765C30.254 13.765 30.4549 13.8404 30.568 13.9535C30.681 14.0667 30.7438 14.2678 30.7564 14.4313C30.7815 15.0347 30.7564 15.6256 30.7564 16.2541C30.8443 16.2541 30.9071 16.2541 30.9824 16.2541C31.5351 16.2541 32.0751 16.2541 32.6277 16.2541C33.0171 16.2541 33.2934 16.5181 33.2934 16.8701C33.2934 17.2347 33.0171 17.4987 32.6152 17.4987C32.1756 17.4987 31.7486 17.4987 31.309 17.4987C31.1332 17.4987 30.9573 17.4987 30.7815 17.4987V18.7433C31.3969 18.7433 31.9998 18.7433 32.6026 18.7433C33.0171 18.7433 33.3059 19.0073 33.3059 19.3719C33.3059 19.7364 33.0171 19.9879 32.6152 19.9879C32.0751 19.9879 31.5351 19.9879 30.995 19.9879C30.9196 19.9879 30.8443 19.9879 30.7815 19.9879V21.2325C31.3969 21.2325 32.0123 21.2325 32.6152 21.2325C33.0171 21.2325 33.2934 21.4839 33.3059 21.8485C33.3059 22.213 33.0296 22.477 32.6277 22.477C32.0751 22.477 31.5351 22.477 30.9824 22.477C30.9196 22.477 30.8443 22.477 30.794 22.477V23.7091C31.4346 23.7091 32.05 23.7091 32.678 23.7091C33.0296 23.7091 33.3059 23.9856 33.3059 24.3251C33.3059 24.6771 33.0422 24.9536 32.678 24.9536C32.5272 24.9536 32.3891 24.9536 32.2384 24.9536C31.7611 24.9536 31.2713 24.9536 30.794 24.9536V26.1982C31.4095 26.1982 32.0249 26.1982 32.6277 26.1982C33.0296 26.1982 33.3059 26.4622 33.3059 26.8268C33.3059 27.1914 33.0296 27.4428 32.6152 27.4428C32.0625 27.4428 31.5225 27.4428 30.9699 27.4428C30.9071 27.4428 30.8443 27.4428 30.7689 27.4428C30.7689 28.0462 30.7689 28.6245 30.7689 29.2028C30.7689 29.2782 30.7689 29.3537 30.7689 29.4291C30.7061 29.7308 30.4549 29.932 30.1284 29.9445C29.5255 29.9445 28.9101 29.9445 28.2947 29.9445C28.2947 30.5228 28.2822 31.0885 28.2947 31.6417C28.3073 32.0314 28.1943 32.308 27.83 32.484H27.5035C27.1393 32.3206 27.0262 32.0314 27.0388 31.6417C27.0639 31.1388 27.0388 30.6485 27.0388 30.1457V29.9571H25.7954C25.7954 30.5228 25.7828 31.0885 25.7954 31.6417C25.808 32.0314 25.6949 32.308 25.3307 32.484H25.0042C24.6399 32.3206 24.5269 32.0314 24.5395 31.6417C24.5646 31.1388 24.5395 30.6485 24.5395 30.1457V29.9571H23.2961C23.2961 30.5228 23.2835 31.0885 23.2961 31.6417C23.3086 32.0314 23.1956 32.308 22.8314 32.484H22.5048C22.1406 32.3206 22.0276 32.0314 22.0401 31.6417C22.0653 31.1388 22.0401 30.6485 22.0401 30.1457V29.9571H20.7968C20.7968 30.5228 20.7842 31.0885 20.7968 31.6417C20.8093 32.0314 20.6963 32.308 20.3321 32.484H20.0055C19.6413 32.3206 19.5283 32.0314 19.5408 31.6417C19.5659 31.1388 19.5408 30.6485 19.5408 30.1457V29.9571H18.2974C18.2974 30.5228 18.2849 31.0885 18.2974 31.6417C18.31 32.0314 18.197 32.308 17.8327 32.484L17.8704 32.5594ZM28.2947 21.9365C28.2947 20.3022 28.2947 18.6679 28.2947 17.0336C28.2947 16.5433 28.0561 16.3044 27.5663 16.3044C24.3134 16.3044 21.0605 16.3044 17.8202 16.3044C17.3178 16.3044 17.0917 16.5433 17.0917 17.0461C17.0917 20.2896 17.0917 23.5456 17.0917 26.7891C17.0917 27.2919 17.3304 27.5308 17.8202 27.5308C21.0605 27.5308 24.3134 27.5308 27.5537 27.5308C28.0687 27.5308 28.2947 27.2919 28.2947 26.7765C28.2947 25.1673 28.2947 23.5456 28.2947 21.9365Z" fill="#1D4036"/>
<path d="M18.3351 26.2738V25.0418H18.536C19.0635 25.0418 19.6036 25.0418 20.1311 25.0418C20.533 25.0418 20.8219 24.7903 20.8219 24.4258C20.8219 24.0486 20.5456 23.7972 20.1185 23.7972C19.5282 23.7972 18.9379 23.7972 18.3477 23.7972V17.5743H19.5785C19.5785 17.5743 19.5785 17.7 19.5785 17.7628C19.5785 18.2783 19.5785 18.8063 19.5785 19.3217C19.5785 19.7617 19.8171 20.0509 20.1939 20.0509C20.5707 20.0509 20.8219 19.7617 20.8219 19.3091C20.8219 18.7309 20.8219 18.1651 20.8219 17.5743H22.0527C22.0527 17.6371 22.0527 17.7126 22.0527 17.7754C22.0527 18.5423 22.0527 19.3092 22.0527 20.076C22.0527 20.2394 22.0024 20.3149 21.8517 20.3903C21.1986 20.7046 20.5581 21.0314 19.9176 21.3457C19.6538 21.484 19.5157 21.7229 19.5534 21.9869C19.591 22.2509 19.7794 22.4772 20.0432 22.5149C20.1813 22.54 20.3446 22.5149 20.4576 22.4646C21.274 22.0623 22.0904 21.66 22.9067 21.2452C23.1705 21.1195 23.2835 20.8932 23.2835 20.604C23.2835 19.6737 23.2835 18.7309 23.2835 17.8006V17.5617H27.0011V18.7937C26.7499 18.7937 26.4862 18.7937 26.2224 18.7937C25.8833 18.7937 25.5442 18.7937 25.2051 18.7937C24.8032 18.7937 24.5269 19.0577 24.5269 19.4223C24.5269 19.7869 24.8157 20.0383 25.2176 20.0383C25.8079 20.0383 26.3982 20.0383 27.0136 20.0383V26.2612H25.7828C25.7828 26.1606 25.7828 26.0601 25.7828 25.9595C25.7828 25.4566 25.7828 24.9538 25.7828 24.4383C25.7828 24.0486 25.5065 23.772 25.1549 23.7846C24.8032 23.7846 24.5394 24.0612 24.5394 24.4509C24.5394 25.0543 24.5394 25.6578 24.5394 26.2612H23.2961C23.2961 26.1984 23.2961 26.1355 23.2961 26.0726C23.2961 25.2932 23.2961 24.5263 23.2961 23.7469C23.2961 23.596 23.3463 23.5206 23.4845 23.4578C24.1375 23.1435 24.7906 22.8166 25.4312 22.4897C25.6949 22.3515 25.8205 22.1 25.7828 21.836C25.7451 21.5846 25.5693 21.3583 25.3056 21.3206C25.1674 21.2955 24.9916 21.3206 24.866 21.3835C24.0496 21.7857 23.2333 22.188 22.4169 22.6029C22.1657 22.7286 22.0527 22.9423 22.0527 23.2315C22.0527 24.1618 22.0527 25.1046 22.0527 26.0349C22.0527 26.1103 22.0527 26.1858 22.0527 26.2738H18.3225H18.3351Z" fill="#1D4036"/>
</svg>
