<svg width="45" height="45" viewBox="0 0 45 45" fill="none" xmlns="http://www.w3.org/2000/svg">
<circle cx="22.6404" cy="22.1128" r="22.1128" fill="#DD9331"/>
<path d="M22.1773 12.087C23.4835 12.087 24.8022 12.087 26.1084 12.087C30.0269 12.087 33.3677 15.0161 33.9078 18.9007C34.2469 21.3396 34.5734 23.7659 34.9 26.2048C35.1261 27.9145 34.0208 29.6243 32.3881 30.1523C30.7428 30.6803 28.9468 29.9511 28.1305 28.3923C27.3895 26.9968 26.6861 25.6014 25.9702 24.1934C25.8823 24.0048 25.7819 23.9419 25.5684 23.9419C23.3202 23.9419 21.0721 23.9419 18.824 23.9419C18.6104 23.9419 18.51 24.0174 18.4221 24.2059C17.7187 25.5888 17.028 26.9591 16.2995 28.3294C15.5962 29.662 14.4658 30.3534 12.9461 30.3283C10.899 30.2906 9.20344 28.3043 9.46719 26.2677C9.79373 23.7911 10.1203 21.3145 10.4719 18.8505C10.9618 15.431 13.75 12.6401 17.1661 12.1624C17.7313 12.087 18.3216 12.0995 18.8993 12.087C20.0045 12.087 21.0972 12.087 22.2024 12.087H22.1773ZM19.4268 17.5556H17.6057V15.7579H15.7846V17.5682H13.9886V19.391H15.7971V21.1888H17.6182V19.3785H19.4142V17.5556H19.4268ZM28.8464 20.8996C28.8464 20.2208 28.2937 19.6802 27.6281 19.6928C26.9624 19.6928 26.4224 20.2459 26.4224 20.9122C26.4224 21.5911 26.9624 22.1191 27.6406 22.1191C28.3063 22.1191 28.8464 21.5659 28.8464 20.8996ZM26.4349 16.047C26.4349 16.7133 26.9876 17.2664 27.6532 17.2539C28.3189 17.2539 28.8589 16.7007 28.8464 16.0219C28.8464 15.343 28.2937 14.815 27.6281 14.815C26.9624 14.815 26.4224 15.3681 26.4349 16.0344V16.047ZM25.2167 19.6802C25.8949 19.6802 26.4349 19.127 26.4224 18.4607C26.4224 17.7945 25.8698 17.2539 25.1916 17.2664C24.5134 17.2664 23.9859 17.807 23.9859 18.4859C23.9859 19.1522 24.5385 19.6928 25.2041 19.6802H25.2167ZM30.0772 19.6802C30.7554 19.6802 31.2829 19.1396 31.2829 18.4607C31.2829 17.7945 30.7428 17.2539 30.0646 17.2539C29.3864 17.2539 28.8464 17.807 28.8589 18.4733C28.8589 19.1396 29.4115 19.6802 30.0772 19.6802Z" fill="#1D4036"/>
</svg>
