<svg width="44" height="43" viewBox="0 0 44 43" fill="none" xmlns="http://www.w3.org/2000/svg">
<path d="M21.7755 42.4518C17.1776 42.4518 12.5809 42.4566 7.983 42.4506C4.25698 42.4447 1.26211 39.9859 0.523826 36.3372C0.426024 35.8546 0.391422 35.3647 0.391422 34.8713C0.393808 26.0936 0.38904 17.3148 0.395004 8.53708C0.398582 4.2731 3.68807 0.963694 7.93888 0.96011C17.1931 0.950552 26.4473 0.950552 35.7015 0.96011C39.9524 0.964889 43.2407 4.27071 43.2454 8.53708C43.2526 17.3148 43.2526 26.0936 43.2454 34.8713C43.2419 39.1556 39.9464 42.4435 35.6574 42.4506C31.0309 42.459 26.4032 42.453 21.7767 42.453L21.7755 42.4518ZM14.6896 24.1235C14.8089 24.3362 14.8828 24.4652 14.9544 24.5954C16.1566 26.8033 17.366 29.0076 18.5552 31.2226C18.7472 31.581 18.9702 31.7423 19.3913 31.7304C20.3872 31.7017 21.3843 31.7232 22.3814 31.7184C22.5388 31.7184 22.7475 31.7973 22.8418 31.6455C22.9515 31.4687 22.7654 31.317 22.6807 31.1724C20.912 28.1557 19.142 25.1414 17.3601 22.1331C17.2062 21.8726 17.1919 21.6851 17.3505 21.4151C19.0132 18.5788 20.6603 15.7329 22.311 12.8895C22.5734 12.4379 22.5555 12.4068 22.0379 12.4068C21.1302 12.4056 20.2226 12.4247 19.3149 12.3973C18.9237 12.3853 18.7186 12.5406 18.5588 12.8763C18.2594 13.5072 17.9278 14.1236 17.6082 14.7461C16.7387 16.4354 15.8692 18.1236 14.9937 19.8213C14.8029 19.7066 14.7648 19.5214 14.686 19.3685C13.5625 17.2036 12.439 15.0388 11.3309 12.8644C11.1592 12.5263 10.9493 12.3889 10.5676 12.3973C9.5717 12.42 8.57459 12.4044 7.57749 12.4056C7.01811 12.4056 7.01573 12.408 7.28289 12.8799C8.76424 15.4952 10.2468 18.1093 11.7269 20.7245C11.969 21.151 12.3734 21.574 12.3948 22.0136C12.4163 22.476 11.9559 22.8941 11.7007 23.3266C10.1549 25.9383 8.59965 28.5452 7.05151 31.1557C6.96325 31.3038 6.77122 31.4615 6.85948 31.6264C6.96324 31.8188 7.20893 31.7172 7.39142 31.7184C8.29907 31.7268 9.20673 31.7053 10.1144 31.7304C10.5104 31.7411 10.7406 31.6037 10.923 31.2525C11.653 29.8379 12.4068 28.4365 13.1522 27.0303C13.6519 26.0876 14.1517 25.145 14.6932 24.1259L14.6896 24.1235ZM36.4565 20.5417C36.4565 17.7401 36.4518 14.9396 36.4637 12.138C36.4649 11.7939 36.3838 11.6661 36.0164 11.678C35.1541 11.7055 34.2906 11.7079 33.4294 11.678C33.012 11.6625 32.8713 11.7688 32.8772 12.2121C32.9035 13.9552 32.8796 15.6983 32.8939 17.4414C32.8963 17.7783 32.8462 17.9026 32.4633 17.844C28.9186 17.2956 25.4478 19.6062 24.5604 23.0889C24.2694 24.231 24.279 25.3851 24.409 26.5488C24.6964 29.1163 26.2529 31.0864 28.7087 31.7459C31.4149 32.4723 34.0389 32.0063 36.5841 30.943C36.8418 30.8355 36.8299 30.6467 36.775 30.4257C36.614 29.777 36.4434 29.1378 36.4482 28.4532C36.4685 25.8164 36.4565 23.1785 36.4565 20.5417Z" fill="#470137"/>
<path d="M14.6896 24.1232C14.1493 25.1423 13.6484 26.0849 13.1486 27.0275C12.4032 28.4337 11.6494 29.8363 10.9195 31.2497C10.7382 31.601 10.508 31.7395 10.1108 31.7276C9.20434 31.7025 8.29549 31.724 7.38784 31.7157C7.20654 31.7145 6.95966 31.816 6.85589 31.6237C6.76763 31.4588 6.95967 31.3011 7.04793 31.1529C8.59607 28.5425 10.1514 25.9356 11.6971 23.3239C11.9535 22.8914 12.4139 22.4732 12.3913 22.0109C12.371 21.5712 11.9655 21.1483 11.7233 20.7218C10.2432 18.1065 8.75946 15.4924 7.27931 12.8772C7.01214 12.4053 7.01452 12.4029 7.57391 12.4029C8.57101 12.4029 9.56812 12.4184 10.564 12.3945C10.9457 12.3861 11.1556 12.5235 11.3274 12.8616C12.4342 15.0349 13.5589 17.1997 14.6825 19.3657C14.7612 19.5175 14.7993 19.7039 14.9902 19.8185C15.8644 18.1208 16.7351 16.4327 17.6046 14.7433C17.9242 14.1221 18.2558 13.5056 18.5552 12.8736C18.715 12.5367 18.9189 12.3826 19.3113 12.3945C20.2178 12.422 21.1266 12.4017 22.0343 12.4041C22.5531 12.4041 22.5698 12.4351 22.3074 12.8867C20.6567 15.7302 19.0096 18.576 17.3469 21.4123C17.1883 21.6835 17.2014 21.8699 17.3565 22.1303C19.1384 25.1387 20.9084 28.1542 22.6772 31.1697C22.7619 31.3142 22.9479 31.4648 22.8382 31.6428C22.744 31.7945 22.5353 31.7157 22.3778 31.7157C21.3807 31.7216 20.3836 31.6989 19.3877 31.7276C18.9679 31.7395 18.7448 31.5783 18.5516 31.2198C17.3625 29.0048 16.1543 26.8005 14.9508 24.5927C14.8804 24.4625 14.8065 24.3346 14.686 24.1208L14.6896 24.1232Z" fill="#FD60F4"/>
<path d="M36.4565 20.5427C36.4565 23.1794 36.4685 25.8174 36.4482 28.4542C36.4434 29.1387 36.6128 29.7791 36.775 30.4267C36.8299 30.6465 36.8406 30.8365 36.5841 30.944C34.0389 32.0073 31.4149 32.4732 28.7087 31.7468C26.2529 31.0873 24.6964 29.1172 24.409 26.5498C24.279 25.3861 24.2682 24.232 24.5604 23.0898C25.449 19.6072 28.9186 17.2966 32.4633 17.845C32.8462 17.9047 32.8975 17.7793 32.8939 17.4423C32.8796 15.6992 32.9023 13.9561 32.8772 12.213C32.8701 11.7698 33.012 11.6646 33.4294 11.679C34.2906 11.71 35.1553 11.7065 36.0164 11.679C36.3838 11.667 36.4649 11.7949 36.4637 12.1389C36.4518 14.9394 36.4565 17.741 36.4565 20.5427ZM32.8903 24.9656C32.8903 23.6705 32.8701 22.3754 32.9011 21.0815C32.9118 20.6466 32.7412 20.4543 32.3548 20.3742C30.9069 20.0743 29.6652 20.4399 28.717 21.5916C27.6496 22.8891 27.3454 24.3993 27.6281 26.0348C27.9597 27.9512 29.6092 30.0276 32.3834 29.4936C32.74 29.4255 32.9106 29.3084 32.9011 28.8926C32.8701 27.5832 32.8903 26.2738 32.8903 24.9644V24.9656Z" fill="#FD60F4"/>
<path d="M32.8915 24.9657C32.8915 26.2751 32.8724 27.5857 32.9022 28.8939C32.9118 29.3085 32.7412 29.4256 32.3846 29.4949C29.6104 30.0278 27.9609 27.9525 27.6293 26.0362C27.3466 24.3994 27.6507 22.8892 28.7182 21.593C29.6664 20.4401 30.908 20.0757 32.356 20.3755C32.7424 20.4556 32.9118 20.6479 32.9022 21.0828C32.8712 22.3767 32.8915 23.6718 32.8915 24.9669V24.9657Z" fill="#470137"/>
</svg>
