<svg width="44" height="43" viewBox="0 0 44 43" fill="none" xmlns="http://www.w3.org/2000/svg">
<path d="M43.3357 7.57998V35.9915C43.1828 36.0514 43.226 36.2034 43.2027 36.3111C42.4116 39.9768 39.5044 42.4251 35.7872 42.4351C26.6666 42.4595 17.546 42.4639 8.4254 42.4351C4.12989 42.4207 0.875849 39.0845 0.874741 34.7884C0.871417 26.0674 0.874738 17.3464 0.871414 8.62544C0.871414 8.12491 0.900223 7.62882 0.998831 7.13938C1.73229 3.48474 4.68939 0.982084 8.41763 0.972095C17.5382 0.94546 26.6589 0.947679 35.7795 0.972095C39.3648 0.980974 42.2964 3.3338 43.1362 6.76315C43.2027 7.03617 43.1872 7.32916 43.3357 7.5822V7.57998ZM21.4759 30.2026C22.0288 30.2026 22.5816 30.2048 23.1345 30.2026C23.5865 30.2004 23.6198 30.1549 23.468 29.7221C23.0414 28.5101 22.6104 27.3004 22.1806 26.0907C20.5142 21.4073 18.8456 16.7238 17.1826 12.0381C17.094 11.7873 17.0109 11.6131 16.6785 11.6175C15.2836 11.6375 13.8876 11.6308 12.4916 11.622C12.2323 11.6197 12.1215 11.6941 12.116 11.9704C12.1049 12.5686 11.973 13.1435 11.7747 13.7118C9.92112 19.0178 8.0775 24.3272 6.23166 29.6366C6.04331 30.1782 6.06104 30.2037 6.62277 30.2037C7.57671 30.2048 8.52955 30.1926 9.48238 30.2104C9.81587 30.2159 9.97985 30.0905 10.0773 29.7753C10.4529 28.5612 10.854 27.3559 11.2307 26.1429C11.3094 25.8887 11.3991 25.7678 11.7027 25.77C13.6649 25.7877 15.627 25.7844 17.5892 25.7722C17.8584 25.77 17.967 25.8566 18.0501 26.1085C18.4523 27.3282 18.8911 28.5357 19.2855 29.7576C19.4007 30.1149 19.5824 30.2315 19.9425 30.2126C20.4521 30.1849 20.9651 30.206 21.4759 30.206V30.2026ZM32.6252 24.1618C33.8627 24.0908 35.313 24.3072 36.7622 24.1241C37.0148 24.0919 37.1744 24.0453 37.2021 23.7534C37.2952 22.7868 37.3716 21.819 37.1965 20.8568C36.7844 18.5817 35.6642 16.8781 33.3509 16.1622C32.4955 15.897 31.6158 15.8337 30.7272 15.8903C28.7097 16.0202 27.0533 16.8403 25.8822 18.5217C24.5571 20.4251 24.2103 22.5504 24.5493 24.8111C24.6934 25.7767 24.9881 26.6934 25.5088 27.5291C26.3752 28.9174 27.5895 29.8619 29.1739 30.2548C31.3444 30.793 33.4982 30.6554 35.6199 29.9429C35.9711 29.8253 36.0864 29.6266 36.0775 29.2704C36.0576 28.509 36.0598 27.7477 36.0775 26.9864C36.0842 26.6645 36.0188 26.5957 35.6897 26.7022C34.3779 27.1251 33.034 27.3393 31.6502 27.1872C29.9107 26.9952 28.7739 26.0208 28.4748 24.507C28.4161 24.2107 28.4936 24.1552 28.7662 24.1585C29.9827 24.1696 31.1981 24.163 32.6263 24.163L32.6252 24.1618Z" fill="#01015B"/>
<path d="M21.4759 30.2025C20.9651 30.2025 20.4522 30.1825 19.9425 30.2091C19.5824 30.2291 19.4007 30.1126 19.2855 29.7541C18.8911 28.5322 18.4523 27.3247 18.0501 26.105C17.967 25.8531 17.8585 25.7676 17.5892 25.7687C15.6271 25.7809 13.6649 25.7843 11.7027 25.7665C11.3991 25.7643 11.3094 25.8853 11.2307 26.1394C10.854 27.3524 10.453 28.5588 10.0774 29.7719C9.97986 30.087 9.81589 30.2136 9.48239 30.2069C8.52956 30.1903 7.57561 30.2025 6.62278 30.2002C6.06105 30.2002 6.04332 30.1736 6.23167 29.6331C8.07751 24.3248 9.92113 19.0143 11.7747 13.7083C11.973 13.14 12.1049 12.5652 12.116 11.967C12.1215 11.6906 12.2323 11.6163 12.4916 11.6185C13.8876 11.6274 15.2825 11.634 16.6785 11.614C17.0109 11.6096 17.094 11.7838 17.1826 12.0347C18.8456 16.7192 20.5142 21.4027 22.1806 26.0872C22.6116 27.297 23.0414 28.5067 23.468 29.7186C23.6209 30.1514 23.5865 30.1969 23.1345 30.1991C22.5816 30.2025 22.0288 30.1991 21.4759 30.1991V30.2025ZM14.6111 14.8203C13.871 17.2897 13.1752 19.6281 12.4616 21.962C12.3664 22.2717 12.4871 22.2739 12.7209 22.2728C13.9895 22.2661 15.2592 22.2617 16.5278 22.2761C16.8225 22.2794 16.8702 22.204 16.7849 21.9321C16.3195 20.4449 15.8675 18.9544 15.4121 17.4639C15.1551 16.6227 14.9002 15.7803 14.61 14.8214L14.6111 14.8203Z" fill="#9898FD"/>
<path d="M32.6252 24.1618C31.197 24.1618 29.9805 24.1674 28.7651 24.1574C28.4914 24.1552 28.415 24.2096 28.4737 24.5059C28.7728 26.0197 29.9085 26.9941 31.6491 27.1861C33.0318 27.3381 34.3757 27.125 35.6886 26.7011C36.0188 26.5946 36.0842 26.6645 36.0764 26.9852C36.0598 27.7466 36.0576 28.5079 36.0764 29.2692C36.0853 29.6266 35.9701 29.8241 35.6188 29.9418C33.4971 30.6543 31.3444 30.7919 29.1728 30.2536C27.5884 29.8608 26.3741 28.9174 25.5077 27.5279C24.987 26.6933 24.6923 25.7755 24.5482 24.81C24.2103 22.5493 24.556 20.4239 25.8811 18.5206C27.0522 16.8381 28.7086 16.019 30.7262 15.8892C31.6147 15.8326 32.4944 15.8959 33.3498 16.1611C35.662 16.8769 36.7833 18.5816 37.1955 20.8557C37.3694 21.8179 37.293 22.7856 37.201 23.7523C37.1733 24.0442 37.0137 24.0919 36.7611 24.123C35.3119 24.3061 33.8605 24.0897 32.6241 24.1607L32.6252 24.1618ZM30.8857 21.5471V21.5393C31.6036 21.5393 32.3216 21.5471 33.0395 21.5371C33.5304 21.5304 33.6301 21.4139 33.5381 20.9311C33.3575 19.9822 32.8168 19.3241 31.8817 19.0466C30.2431 18.5617 28.7119 19.5893 28.4538 21.3062C28.4161 21.556 28.5224 21.5482 28.6897 21.5471C29.4221 21.5449 30.1533 21.5471 30.8857 21.5471Z" fill="#9898FD"/>
<path d="M14.6111 14.8203C14.9025 15.7792 15.1562 16.6216 15.4132 17.4628C15.8686 18.9533 16.3206 20.4438 16.786 21.931C16.8713 22.2029 16.8225 22.2783 16.5289 22.275C15.2603 22.2606 13.9906 22.265 12.722 22.2717C12.4883 22.2728 12.3675 22.2717 12.4628 21.9609C13.1774 19.6281 13.8721 17.2886 14.6122 14.8192L14.6111 14.8203Z" fill="#01015B"/>
<path d="M30.8868 21.5468C30.1544 21.5468 29.4232 21.5457 28.6908 21.5468C28.5235 21.5468 28.4172 21.5546 28.4548 21.306C28.713 19.5891 30.2442 18.5614 31.8828 19.0464C32.8179 19.3228 33.3586 19.9809 33.5392 20.9309C33.6312 21.4137 33.5315 21.5302 33.0406 21.5369C32.3227 21.5468 31.6047 21.5391 30.8868 21.5391V21.5468Z" fill="#01015B"/>
</svg>
