<svg width="42" height="42" viewBox="0 0 42 42" fill="none" xmlns="http://www.w3.org/2000/svg">
<rect width="41.3977" height="41.3977" rx="13" fill="white"/>
<path d="M24.8717 33.7016C24.8589 33.6641 24.8249 33.6777 24.8002 33.6752C24.5858 33.6547 24.3704 33.6428 24.156 33.6206C23.607 33.5635 23.064 33.4697 22.5296 33.3333C21.1661 32.9864 19.9015 32.4211 18.7551 31.6019C17.3474 30.5951 16.2393 29.3282 15.4819 27.7647C15.1108 26.9992 14.847 26.1987 14.7201 25.3547C14.6801 25.0887 14.6393 24.8218 14.6478 24.5516C14.6563 24.2686 14.6818 23.9864 14.7167 23.7051C14.7201 23.6769 14.7227 23.6488 14.7252 23.6147C14.6793 23.6189 14.6555 23.6513 14.6282 23.6744C13.9542 24.2259 13.281 24.7775 12.6078 25.3299C11.2776 26.4203 9.94819 27.5115 8.61627 28.601C8.21116 28.9327 7.75158 29.1492 7.23243 29.2293C6.7771 29.2992 6.3337 29.2549 5.92603 29.0264C5.39156 28.7281 5.11326 28.2626 5.08688 27.653C5.06305 27.1057 5.25454 26.6258 5.56944 26.1884C5.73795 25.954 5.9422 25.7536 6.17114 25.578C9.38053 23.1109 12.5899 20.6437 15.8002 18.1757C16.3048 17.7878 16.8104 17.399 17.3151 17.0103C17.3397 16.9915 17.3687 16.9762 17.3891 16.9412C17.3534 16.9199 17.3151 16.9293 17.2802 16.9301C15.5712 16.9344 13.8631 16.9395 12.1542 16.9438C11.7967 16.9446 11.4393 16.9472 11.0827 16.9395C10.772 16.9327 10.4725 16.8671 10.1984 16.711C9.86223 16.5192 9.62989 16.2456 9.5567 15.8577C9.50649 15.5891 9.54819 15.3283 9.66053 15.0802C9.8333 14.6991 10.115 14.4178 10.4665 14.2012C10.8835 13.9446 11.338 13.8227 11.8265 13.8219C15.898 13.8193 19.9704 13.8159 24.0419 13.8116C24.0828 13.8116 24.1253 13.8202 24.1755 13.7963C24.0845 13.7213 24.0011 13.6522 23.916 13.5832C22.687 12.5815 21.4572 11.5798 20.2283 10.5789C20.121 10.492 20.0164 10.4024 19.9304 10.2925C19.6589 9.9455 19.6266 9.51157 19.8444 9.12794C19.9832 8.88412 20.1832 8.70254 20.424 8.56529C20.8198 8.34022 21.2462 8.25327 21.6989 8.28651C21.9628 8.30612 22.2147 8.36921 22.4521 8.486C22.544 8.53118 22.6308 8.58575 22.7125 8.64883C24.5245 10.0427 26.3364 11.4365 28.1492 12.8296C29.5773 13.9276 31.0062 15.0239 32.4326 16.1245C33.5424 16.9804 34.4548 18.0094 35.1373 19.2379C35.642 20.1458 35.9875 21.1109 36.1688 22.1347C36.2778 22.7511 36.3271 23.3709 36.3092 23.9958C36.2863 24.7997 36.1586 25.5874 35.9263 26.3581C35.5492 27.6087 34.9373 28.7332 34.1033 29.7366C32.922 31.1586 31.4581 32.1867 29.7475 32.8704C28.9671 33.1824 28.1611 33.4015 27.3313 33.5354C26.9117 33.6027 26.4904 33.6445 26.0666 33.6743C26.036 33.6769 25.9943 33.6564 25.9755 33.7033H24.8717V33.7016ZM32.0624 22.9429C32.0547 22.4655 32.0088 22.0401 31.8862 21.5669C31.573 20.3589 30.9228 19.3615 29.9773 18.5584C28.7415 17.5098 27.299 16.9941 25.6896 16.9301C25.0862 16.9063 24.4887 16.9642 23.8989 17.0938C22.6411 17.3717 21.5347 17.9404 20.6087 18.8415C19.5346 19.8858 18.9253 21.1535 18.8291 22.6565C18.79 23.2652 18.8589 23.8653 19.0266 24.4536C19.3406 25.5576 19.9457 26.4791 20.7968 27.2379C22.0164 28.3257 23.4598 28.8696 25.0802 28.9548C25.7968 28.9923 26.5075 28.925 27.2045 28.746C28.6275 28.3811 29.8275 27.6539 30.762 26.5115C31.6096 25.4757 32.0505 24.2856 32.0633 22.9421L32.0624 22.9429Z" fill="#FF7021"/>
<path d="M21.356 22.7346C21.3713 21.7525 21.7466 20.8949 22.4547 20.183C23.0717 19.5632 23.8198 19.1813 24.6734 19.0134C25.7066 18.8096 26.7024 18.9375 27.6428 19.4166C28.4982 19.8514 29.1467 20.4976 29.5186 21.391C29.9569 22.4439 29.8965 23.4822 29.3492 24.4805C28.8794 25.3373 28.1603 25.9179 27.2607 26.2793C26.6922 26.5078 26.099 26.611 25.4879 26.5956C24.419 26.5683 23.4624 26.2282 22.6513 25.5223C22.0096 24.9639 21.5917 24.2674 21.4224 23.4277C21.3781 23.2086 21.3619 22.9861 21.3577 22.7346H21.356Z" fill="#005385"/>
</svg>
