<svg width="43" height="42" viewBox="0 0 43 42" fill="none" xmlns="http://www.w3.org/2000/svg">
<rect x="0.86731" width="41.4365" height="41.4365" rx="13" fill="white"/>
<path d="M22.6482 7.4585C22.6482 7.76153 22.6418 8.06457 22.651 8.36761C22.6546 8.49698 22.6154 8.53343 22.4876 8.53128C22.0339 8.52413 21.5801 8.52628 21.1263 8.53128C21.0535 8.532 20.9386 8.47482 20.9379 8.63563C20.9379 8.79644 21.0528 8.73998 21.1256 8.74069C21.5701 8.74498 22.0153 8.74927 22.4598 8.73926C22.6097 8.73569 22.6532 8.77714 22.6518 8.92938C22.6439 9.62479 22.6439 10.3195 22.6518 11.0149C22.6532 11.1657 22.6125 11.2079 22.4612 11.2065C21.6072 11.1993 20.7531 11.1993 19.899 11.2065C19.7478 11.2079 19.7014 11.1664 19.7085 11.0149C19.7207 10.7569 19.7185 10.4982 19.7085 10.2394C19.7035 10.1094 19.7464 10.0743 19.8726 10.0765C20.3264 10.0836 20.7802 10.0815 21.234 10.0765C21.3068 10.0758 21.4224 10.1322 21.4217 9.97143C21.4217 9.81061 21.3061 9.86779 21.2333 9.86708C20.7888 9.86279 20.3436 9.8585 19.899 9.86851C19.7485 9.87208 19.7064 9.8292 19.7078 9.67768C19.7157 8.93795 19.7114 8.19822 19.7114 7.4585H22.6475H22.6482Z" fill="black"/>
<path d="M26.1713 7.4585C26.1713 7.76153 26.1649 8.06457 26.1742 8.36761C26.1777 8.49698 26.1385 8.53343 26.0108 8.53128C25.557 8.52413 25.1032 8.52628 24.6494 8.53128C24.5766 8.532 24.4618 8.47482 24.461 8.63563C24.461 8.79644 24.5759 8.73998 24.6487 8.74069C25.0932 8.74498 25.5384 8.74927 25.9829 8.73926C26.1328 8.73569 26.1763 8.77714 26.1749 8.92938C26.167 9.62479 26.167 10.3195 26.1749 11.0149C26.1763 11.1657 26.1356 11.2079 25.9844 11.2065C25.1303 11.1993 24.2762 11.1993 23.4222 11.2065C23.2709 11.2079 23.2245 11.1664 23.2317 11.0149C23.2438 10.7569 23.2417 10.4982 23.2317 10.2394C23.2267 10.1094 23.2695 10.0743 23.3958 10.0765C23.8496 10.0836 24.3034 10.0815 24.7571 10.0765C24.8299 10.0758 24.9455 10.1322 24.9448 9.97143C24.9448 9.81061 24.8292 9.86779 24.7564 9.86708C24.3119 9.86279 23.8667 9.8585 23.4222 9.86851C23.2716 9.87208 23.2295 9.8292 23.231 9.67768C23.2388 8.93795 23.2345 8.19822 23.2345 7.4585H26.1706H26.1713Z" fill="black"/>
<path d="M19.1248 7.4585C19.1248 7.81514 19.1191 8.17178 19.1276 8.52771C19.1305 8.65636 19.0927 8.69352 18.9642 8.69138C18.5104 8.68423 18.0566 8.69495 17.6036 8.68494C17.4523 8.68137 17.4066 8.72497 17.4131 8.87649C17.4252 9.17024 17.4231 9.46469 17.4131 9.75844C17.4088 9.8878 17.4495 9.92354 17.5772 9.9214C18.031 9.91425 18.4847 9.92497 18.9378 9.91496C19.0898 9.91139 19.134 9.95642 19.1276 10.1065C19.1162 10.4003 19.1176 10.6947 19.1276 10.9885C19.1319 11.1185 19.0898 11.1521 18.9635 11.1514C18.0916 11.1464 17.2204 11.1421 16.3485 11.1536C16.1502 11.1564 16.1894 11.0421 16.1894 10.9334C16.1887 9.77488 16.1894 8.61633 16.1894 7.4585H19.1255H19.1248Z" fill="black"/>
<path d="M21.3133 12.8434C24.4363 12.8434 27.5593 12.8456 30.6823 12.8384C30.9171 12.8384 31.002 12.8792 30.977 13.1393C30.7965 15.0283 30.6295 16.918 30.4604 18.8077C30.3092 20.5023 30.1629 22.1976 30.0124 23.8922C29.8604 25.5953 29.7041 27.2985 29.5521 29.0024C29.453 30.1116 29.3531 31.2201 29.2675 32.3308C29.2496 32.5574 29.1833 32.661 28.9478 32.7253C26.4905 33.3972 24.0368 34.0826 21.5837 34.7723C21.3654 34.8337 21.1742 34.8051 20.9644 34.7465C18.5285 34.064 16.0912 33.385 13.651 32.716C13.4398 32.6581 13.3777 32.5631 13.3599 32.3572C13.1736 30.1917 12.9774 28.0275 12.7855 25.8626C12.6178 23.9637 12.4544 22.0647 12.2853 20.1657C12.0991 18.0716 11.9079 15.9782 11.7195 13.8848C11.6953 13.6189 11.6867 13.3502 11.6475 13.0864C11.6161 12.8735 11.6974 12.8341 11.8908 12.8399C12.3353 12.8534 12.7805 12.8442 13.225 12.8442C15.9206 12.8442 18.617 12.8442 21.3126 12.8442L21.3133 12.8434ZM21.3154 21.7852C21.2091 21.7895 21.1028 21.7974 20.9965 21.7974C19.3076 21.7981 17.6181 21.8017 15.9292 21.7931C15.7137 21.7916 15.6666 21.8417 15.6923 22.0597C15.7665 22.6958 15.8207 23.3347 15.8607 23.9744C15.8735 24.1816 15.9328 24.2424 16.1411 24.241C17.7593 24.2324 19.3776 24.236 20.9951 24.2367C21.1014 24.2367 21.207 24.2474 21.3133 24.2531C21.3133 25.5332 21.3147 26.8132 21.3154 28.0933C20.4407 27.9046 19.5873 27.6323 18.7197 27.4143C18.582 27.3793 18.5963 27.2885 18.5877 27.1927C18.5399 26.6703 18.4843 26.1478 18.4457 25.6247C18.4343 25.471 18.3758 25.436 18.2331 25.4374C17.576 25.4438 16.9181 25.4503 16.261 25.4345C16.0348 25.4295 15.9998 25.5074 16.0191 25.7111C16.1226 26.8089 16.2153 27.9082 16.3059 29.0074C16.3209 29.1882 16.3851 29.2804 16.5728 29.3312C18.1553 29.7621 19.735 30.2052 21.3154 30.6448C21.3154 31.4024 21.3169 32.1593 21.3119 32.9169C21.3105 33.0977 21.3583 33.1506 21.548 33.097C23.5409 32.5338 25.5358 31.977 27.5315 31.4253C27.6542 31.391 27.7127 31.3488 27.7234 31.218C27.7513 30.8742 27.7955 30.5326 27.8262 30.1888C27.8683 29.7128 27.8997 29.2354 27.9418 28.7594C28.0081 28.0104 28.0795 27.2621 28.1473 26.5138C28.1879 26.0642 28.2222 25.6139 28.2636 25.1644C28.3299 24.4511 28.4027 23.7385 28.4669 23.0252C28.5097 22.5492 28.5383 22.0718 28.5825 21.5958C28.6467 20.9004 28.7252 20.2064 28.7866 19.5103C28.8486 18.8049 28.89 18.098 28.9535 17.3926C29.0334 16.5035 29.1262 15.6151 29.2161 14.7267C29.2353 14.5402 29.1868 14.458 28.9735 14.4587C26.5005 14.4658 24.0282 14.4651 21.5552 14.4601C21.3711 14.4601 21.3076 14.5123 21.3105 14.701C21.3204 15.4228 21.3147 16.1447 21.3147 16.8658C21.2084 16.8708 21.1021 16.8809 20.9965 16.8809C19.1571 16.8816 17.317 16.8844 15.4776 16.8773C15.2735 16.8766 15.2264 16.923 15.2514 17.1324C15.327 17.7592 15.3919 18.3889 15.424 19.0186C15.4376 19.2859 15.5311 19.3295 15.7715 19.3266C16.9003 19.3137 18.029 19.3195 19.1571 19.3216C19.8763 19.323 20.5962 19.3302 21.3154 19.3352C21.3154 20.1514 21.3154 20.9669 21.3154 21.7831V21.7852Z" fill="#014CE7"/>
<path d="M21.3142 16.8678C21.3142 16.146 21.3192 15.4241 21.3099 14.703C21.3071 14.5136 21.3706 14.4614 21.5546 14.4621C24.0277 14.4671 26.5 14.4678 28.973 14.4607C29.1863 14.4607 29.2348 14.5415 29.2156 14.7287C29.1256 15.6171 29.0329 16.5055 28.953 17.3946C28.8895 18.1 28.8481 18.8069 28.786 19.5123C28.7247 20.2077 28.6462 20.9024 28.582 21.5978C28.5377 22.0738 28.5099 22.5512 28.4664 23.0272C28.4022 23.7405 28.3294 24.4531 28.263 25.1664C28.2216 25.6159 28.1874 26.0662 28.1467 26.5158C28.0789 27.2641 28.0069 28.0124 27.9412 28.7614C27.8991 29.2374 27.8677 29.7148 27.8256 30.1908C27.7957 30.5339 27.7514 30.8762 27.7229 31.22C27.7122 31.3501 27.6544 31.393 27.531 31.4273C25.5353 31.979 23.5403 32.5358 21.5475 33.099C21.357 33.1526 21.3099 33.0997 21.3113 32.9189C21.3163 32.1613 21.3142 31.4044 21.3149 30.6468C21.3178 30.6368 21.3171 30.6275 21.3142 30.6182C21.3406 30.6182 21.3684 30.6225 21.3934 30.6154C22.9674 30.1794 24.5407 29.7405 26.1154 29.3089C26.2424 29.2738 26.2773 29.2145 26.288 29.0909C26.3886 27.9195 26.495 26.7488 26.6006 25.5781C26.7347 24.0879 26.871 22.5984 27.0037 21.1082C27.1221 19.7774 27.2327 18.4466 27.3569 17.1166C27.3761 16.9136 27.3041 16.8771 27.1257 16.8821C26.7525 16.8929 26.3787 16.885 26.0048 16.8857C24.4393 16.8893 22.8739 16.8929 21.3092 16.8964C21.3128 16.8879 21.3142 16.8786 21.3135 16.8693L21.3142 16.8678Z" fill="#0165F3"/>
<path d="M21.3157 30.6454C19.7353 30.2059 18.1563 29.7627 16.573 29.3318C16.3853 29.281 16.3211 29.1881 16.3061 29.008C16.2155 27.9088 16.1228 26.8096 16.0193 25.7118C16.0001 25.5088 16.035 25.4302 16.2612 25.4352C16.9183 25.4502 17.5762 25.4444 18.2333 25.438C18.376 25.4366 18.4345 25.4716 18.4459 25.6253C18.4845 26.1484 18.5401 26.6702 18.5879 27.1934C18.5965 27.2891 18.5822 27.3799 18.7199 27.4149C19.5868 27.6336 20.4402 27.9059 21.3157 28.0939L21.3107 28.1146C21.3114 28.9494 21.3128 29.7835 21.3135 30.6183C21.3171 30.6275 21.3171 30.6376 21.3142 30.6468L21.3157 30.6454Z" fill="#E6E7EA"/>
<path d="M21.3147 19.3372C20.5955 19.3322 19.8755 19.325 19.1563 19.3236C18.0276 19.3215 16.8988 19.3158 15.7707 19.3286C15.5303 19.3315 15.4368 19.2886 15.4233 19.0206C15.3919 18.3902 15.3262 17.7612 15.2506 17.1344C15.2256 16.925 15.272 16.8786 15.4768 16.8793C17.3162 16.8864 19.1556 16.8836 20.9957 16.8829C21.102 16.8829 21.2084 16.8729 21.314 16.8679C21.314 16.8772 21.3132 16.8864 21.3097 16.895C21.3097 17.7005 21.3097 18.5067 21.3097 19.3122L21.3147 19.3372Z" fill="#E6E7EA"/>
<path d="M21.3131 24.2527C21.2068 24.247 21.1012 24.2363 20.9949 24.2363C19.3767 24.2355 17.7584 24.232 16.1409 24.2405C15.9319 24.242 15.8734 24.1805 15.8605 23.974C15.8206 23.3343 15.7656 22.6953 15.6921 22.0592C15.6665 21.8412 15.7135 21.7919 15.929 21.7927C17.6179 21.8012 19.3075 21.7977 20.9963 21.7969C21.1026 21.7969 21.209 21.7891 21.3153 21.7848L21.3103 21.8077C21.3103 22.6124 21.3096 23.4172 21.3088 24.222C21.3138 24.232 21.3153 24.242 21.3131 24.2527Z" fill="#E6E7EA"/>
<path d="M21.3156 28.0931C21.3156 26.813 21.3142 25.533 21.3135 24.2529C21.3156 24.2422 21.3135 24.2315 21.3092 24.2222C22.2239 24.2265 23.1393 24.235 24.0541 24.2315C24.2353 24.2315 24.2931 24.2608 24.2717 24.4659C24.1789 25.36 24.1054 26.2555 24.0362 27.1518C24.0234 27.3204 23.9706 27.3991 23.8029 27.4427C22.9702 27.6592 22.1411 27.8886 21.3106 28.1138L21.3156 28.0931Z" fill="#0165F3"/>
<path d="M21.3155 21.785C21.3155 20.9688 21.3155 20.1533 21.3155 19.3371L21.3105 19.3121C21.3454 19.3156 21.3811 19.3214 21.4161 19.3214C22.4392 19.3214 23.4617 19.3249 24.4848 19.3185C24.6604 19.3171 24.7296 19.3364 24.7046 19.5486C24.6268 20.2119 24.5676 20.878 24.5276 21.5441C24.5148 21.7593 24.4449 21.8036 24.2451 21.8021C23.2669 21.7957 22.2887 21.8043 21.3105 21.8071L21.3155 21.7843V21.785Z" fill="#0165F3"/>
<path d="M21.3105 21.8078C22.2887 21.805 23.2669 21.7957 24.2451 21.8028C24.4449 21.8042 24.5141 21.7592 24.5276 21.5448C24.5683 20.8787 24.6268 20.2126 24.7046 19.5493C24.7296 19.337 24.6604 19.3177 24.4848 19.3192C23.4617 19.3256 22.4392 19.322 21.4161 19.322C21.3811 19.322 21.3454 19.3156 21.3105 19.3127C21.3105 18.5073 21.3105 17.7011 21.3105 16.8956C22.8759 16.892 24.4413 16.8884 26.006 16.8849C26.3799 16.8842 26.7538 16.892 27.1269 16.8813C27.3053 16.8763 27.3774 16.912 27.3581 17.1157C27.234 18.4458 27.1234 19.7773 27.0049 21.1074C26.8722 22.5976 26.7359 24.0877 26.6018 25.5772C26.4962 26.7479 26.3899 27.9186 26.2893 29.09C26.2786 29.2137 26.2429 29.273 26.1166 29.308C24.5419 29.7404 22.9686 30.1785 21.3946 30.6145C21.3697 30.6216 21.3419 30.6166 21.3155 30.6174C21.3147 29.7826 21.3133 28.9485 21.3126 28.1137C22.1431 27.8886 22.9722 27.6592 23.8049 27.4426C23.9725 27.399 24.0253 27.3197 24.0382 27.1517C24.1067 26.2555 24.1809 25.3599 24.2736 24.4658C24.295 24.2607 24.2373 24.2307 24.056 24.2314C23.1413 24.235 22.2259 24.2264 21.3112 24.2221C21.3112 23.4173 21.3119 22.6126 21.3126 21.8078H21.3105Z" fill="#FDFEFE"/>
</svg>
