<svg width="44" height="42" viewBox="0 0 44 42" fill="none" xmlns="http://www.w3.org/2000/svg">
<path d="M0.817078 34.8668V6.43832C0.969619 6.37853 0.924304 6.22573 0.947517 6.11833C1.75996 2.39357 4.70466 0.00303906 8.51266 0.00193182C17.5026 -0.00138991 26.4915 -0.000283883 35.4814 0.00414508C35.9081 0.00414508 36.3392 0.0185404 36.7593 0.0849749C40.5286 0.678456 43.177 3.7732 43.1792 7.5965C43.1848 16.3116 43.1837 25.0256 43.1792 33.7407C43.177 38.0335 39.9427 41.3618 35.6539 41.3762C26.5545 41.4083 17.454 41.4006 8.35458 41.3784C4.78756 41.3707 1.8495 39.0156 1.01494 35.5986C0.955253 35.3528 0.978462 35.0838 0.817078 34.8656V34.8668ZM7.00161 19.9112C7.00161 22.8665 7.00715 25.8206 6.99499 28.7758C6.99388 29.1312 7.09446 29.2442 7.45924 29.2597C9.29194 29.3394 11.1246 29.3029 12.9573 29.304C13.7024 29.304 14.443 29.2165 15.1714 29.0615C18.1957 28.416 20.5568 26.8503 21.9517 24.0235C22.857 22.1877 23.0217 20.2179 22.7896 18.2061C22.6492 16.987 22.2999 15.8277 21.6654 14.7725C20.1069 12.1816 17.6817 11.0035 14.7934 10.6791C12.377 10.4078 9.94632 10.6082 7.52225 10.6027C7.12211 10.6027 6.99056 10.7499 6.99277 11.1707C7.01267 14.0838 7.00272 16.9981 7.00382 19.9112H7.00161ZM28.3397 16.2341C28.2601 15.9606 28.1805 15.7403 28.1318 15.5133C28.0688 15.2165 27.8953 15.1091 27.6024 15.1114C26.6783 15.1191 25.7542 15.1191 24.8312 15.1114C24.5516 15.1091 24.4753 15.2265 24.4985 15.4911C24.609 16.7711 24.6256 18.0555 24.6245 19.3399C24.6245 22.4756 24.6289 25.6113 24.6179 28.747C24.6168 29.118 24.7129 29.2597 25.1065 29.2497C26.0571 29.2231 27.0088 29.2409 27.9605 29.2409C28.3548 29.2409 28.5523 29.0445 28.553 28.6518C28.553 25.6135 28.5574 22.5742 28.5464 19.5359C28.5464 19.2414 28.6348 19.052 28.8747 18.8837C29.5069 18.4386 30.2077 18.2304 30.9704 18.2293C32.0018 18.2271 32.7258 18.7852 32.9999 19.7828C33.106 20.1703 33.1502 20.5667 33.1502 20.9698C33.148 23.5253 33.1502 26.0808 33.1502 28.6363C33.1502 29.0401 33.358 29.2423 33.7737 29.2431C34.6977 29.2431 35.6218 29.2231 36.5448 29.2519C36.9604 29.2652 37.0898 29.1423 37.0876 28.7182C37.0699 25.9978 37.0787 23.2761 37.0776 20.5545C37.0776 20.0297 37.05 19.5082 36.9847 18.9856C36.6686 16.4345 34.8293 14.7958 32.2637 14.8201C30.8135 14.8334 29.5036 15.2741 28.3397 16.2363V16.2341Z" fill="#082E01"/>
<path d="M7.00157 19.9112C7.00157 16.9981 7.01042 14.0838 6.99052 11.1706C6.98721 10.7499 7.11986 10.6015 7.52 10.6026C9.94407 10.6071 12.3748 10.4078 14.7911 10.679C17.6794 11.0035 20.1046 12.1816 21.6632 14.7725C22.2977 15.8277 22.647 16.987 22.7874 18.2061C23.0195 20.2168 22.8548 22.1877 21.9495 24.0235C20.5556 26.8514 18.1934 28.4159 15.1691 29.0615C14.4407 29.2165 13.7012 29.305 12.9551 29.3039C11.1224 29.3017 9.28969 29.3394 7.45699 29.2596C7.09332 29.2441 6.99163 29.1312 6.99274 28.7758C7.0049 25.8206 6.99938 22.8664 6.99938 19.9112H7.00157ZM10.9113 19.9057C10.9113 21.7559 10.9113 23.6061 10.9113 25.4574C10.9113 25.6423 10.8527 25.8394 11.1743 25.8427C11.9868 25.8538 12.7948 25.9091 13.6095 25.8361C16.0092 25.6224 17.8585 24.1287 18.5052 21.8389C18.818 20.7317 18.8622 19.6056 18.6776 18.4762C18.3449 16.4389 17.2616 15.0128 15.2576 14.3573C14.014 13.9509 12.7373 13.9664 11.4529 14.0074C11.0218 14.0207 10.887 14.1458 10.8958 14.602C10.929 16.3691 10.9091 18.1363 10.9091 19.9046L10.9113 19.9057Z" fill="#64E61E"/>
<path d="M28.3396 16.2331C29.5036 15.2709 30.8134 14.8313 32.2637 14.8169C34.8281 14.7926 36.6686 16.4313 36.9847 18.9824C37.0499 19.505 37.0764 20.0276 37.0776 20.5513C37.0798 23.2729 37.0709 25.9934 37.0875 28.715C37.0897 29.1391 36.9604 29.2609 36.5448 29.2487C35.6218 29.2199 34.6977 29.2398 33.7736 29.2398C33.3587 29.2398 33.1509 29.0376 33.1502 28.6331C33.1502 26.0776 33.1491 23.522 33.1502 20.9665C33.1502 20.5635 33.1071 20.1671 32.9998 19.7796C32.7257 18.7831 32.0017 18.225 30.9704 18.2261C30.2077 18.2272 29.5069 18.4354 28.8746 18.8805C28.6347 19.0499 28.5452 19.2381 28.5463 19.5327C28.5563 22.5709 28.5529 25.6103 28.5529 28.6486C28.5529 29.0413 28.3555 29.2376 27.9605 29.2376C27.0087 29.2376 26.057 29.2199 25.1064 29.2465C24.7129 29.2576 24.6156 29.1147 24.6178 28.7438C24.6289 25.6081 24.6234 22.4724 24.6245 19.3367C24.6245 18.0523 24.609 16.7679 24.4984 15.4879C24.4752 15.2233 24.5526 15.1059 24.8312 15.1081C25.7552 15.117 26.6793 15.1159 27.6023 15.1081C27.8941 15.1059 28.0677 15.2133 28.1318 15.51C28.1804 15.737 28.2589 15.9574 28.3396 16.2309V16.2331Z" fill="#64E61E"/>
<path d="M10.9124 19.9045C10.9124 18.1374 10.9323 16.3691 10.8991 14.602C10.8903 14.1458 11.0251 14.0207 11.4562 14.0074C12.7407 13.9664 14.0174 13.9509 15.2609 14.3573C17.2649 15.0128 18.3471 16.4378 18.6809 18.4762C18.8655 19.6056 18.8213 20.7317 18.5085 21.8389C17.8607 24.1287 16.0115 25.6212 13.6128 25.836C12.7981 25.9091 11.989 25.8526 11.1777 25.8427C10.856 25.8383 10.9146 25.6412 10.9146 25.4574C10.9146 23.6072 10.9146 21.757 10.9146 19.9057L10.9124 19.9045Z" fill="#082E01"/>
</svg>
