<svg width="42" height="42" viewBox="0 0 42 42" fill="none" xmlns="http://www.w3.org/2000/svg">
<rect width="41.4835" height="41.4835" rx="13" fill="#1E1E1E"/>
<path d="M15.6848 15.7819C15.5221 15.6825 15.331 15.6961 15.1541 15.654C12.9729 15.1309 11.5505 13.2511 11.6176 10.9761C11.6797 8.88409 13.2767 7.08356 15.4123 6.69702C15.4679 6.68701 15.5421 6.71845 15.5735 6.63843H20.7527C20.8212 6.75275 20.8019 6.87993 20.8019 7.00354C20.8019 9.92155 20.8019 12.8388 20.8019 15.7568C19.9845 15.7619 19.1671 15.7711 18.3496 15.7711C17.6214 15.7711 16.8924 15.7619 16.1641 15.7568C16.0521 15.7161 15.9416 15.6933 15.836 15.7733C15.7854 15.7761 15.7354 15.7797 15.6848 15.7826V15.7819Z" fill="#FE4D12"/>
<path d="M20.8026 15.7558C20.8026 12.8378 20.8026 9.92051 20.8026 7.0025C20.8026 6.87889 20.8219 6.75242 20.7534 6.63739H25.7721C26.2072 6.74528 26.648 6.82602 27.0667 7.00178C28.8535 7.75058 30.0147 9.68329 29.82 11.6067C29.6132 13.6552 28.106 15.3243 26.1402 15.6794C25.949 15.7137 25.7564 15.7401 25.5645 15.7701C25.2978 15.7744 25.031 15.7794 24.7649 15.7837C23.4439 15.7837 22.1236 15.7837 20.8026 15.7837C20.7969 15.7744 20.7969 15.7651 20.8026 15.7558Z" fill="#FE7361"/>
<path d="M15.6847 15.7813C15.7354 15.7784 15.7853 15.7748 15.836 15.772C15.9451 15.7663 16.0549 15.7613 16.1641 15.7556C16.8923 15.7606 17.6213 15.7706 18.3496 15.7698C19.167 15.7698 19.9844 15.7606 20.8019 15.7556C20.7962 15.7648 20.7969 15.7741 20.8019 15.7834C20.8026 17.0938 20.804 18.4042 20.8047 19.7153C20.8061 20.134 20.8069 20.5534 20.8083 20.9721C20.8033 22.1632 20.799 23.3542 20.7926 24.5453C20.7926 24.6603 20.7798 24.7754 20.7726 24.8897C19.9188 24.889 19.0643 24.8868 18.2098 24.8868C17.3845 24.8868 16.5592 24.8754 15.734 24.9176C15.6098 24.8097 15.4501 24.8354 15.306 24.8047C13.0534 24.3324 11.5034 22.2568 11.681 19.9482C11.8387 17.8912 13.4357 16.1592 15.4757 15.8306C15.5456 15.8191 15.6141 15.7977 15.6833 15.7806L15.6847 15.7813Z" fill="#B659FE"/>
<path d="M15.7361 24.9185C16.5607 24.8764 17.3867 24.8885 18.2119 24.8878C19.0665 24.8878 19.9203 24.8892 20.7748 24.8907C20.7798 25.6652 20.7933 26.4397 20.7883 27.2149C20.7826 28.0966 20.8297 28.979 20.7605 29.86C20.595 31.9771 18.9423 33.7026 16.8253 33.9777C14.4586 34.2856 12.2602 32.7323 11.7766 30.4109C11.2217 27.7501 13.0349 25.2358 15.7368 24.9193L15.7361 24.9185Z" fill="#01CE7F"/>
<path d="M20.8099 20.9724C20.8084 20.5537 20.8077 20.1343 20.8063 19.7156C20.822 19.6648 20.842 19.6155 20.8527 19.5641C21.2086 17.7735 22.2522 16.5811 23.9698 15.9837C24.2272 15.8944 24.4997 15.8501 24.7651 15.7844C25.0318 15.7801 25.2986 15.7751 25.5647 15.7708C27.8479 15.9409 29.5306 17.5042 29.8651 19.7677C30.2075 22.0798 28.4913 24.4291 26.1767 24.8185C23.6195 25.2479 21.3277 23.6467 20.852 21.0988C20.8441 21.056 20.8241 21.0152 20.8099 20.9731V20.9724Z" fill="#01BBFE"/>
<path d="M16.1648 15.7556C16.0557 15.7613 15.9459 15.7663 15.8367 15.772C15.9423 15.692 16.0536 15.7156 16.1648 15.7556Z" fill="#FE7361"/>
</svg>
