<svg width="42" height="42" viewBox="0 0 42 42" fill="none" xmlns="http://www.w3.org/2000/svg">
<rect x="0.516449" width="41.4835" height="41.4835" rx="13" fill="#FF3C00"/>
<path fill-rule="evenodd" clip-rule="evenodd" d="M20.3286 8.89962C21.005 7.83751 21.3368 6.55332 21.3368 4.79266H27.465C27.465 7.3532 26.9719 9.87676 25.4975 12.1917C24.0337 14.4901 21.7876 16.2923 18.7958 17.758C16.4907 18.8874 15.1266 19.9687 14.3142 21.0872C13.5466 22.1439 13.0872 23.4876 13.0872 25.5344H6.95898C6.95898 22.4744 7.6781 19.7955 9.35594 17.4856C10.9889 15.2375 13.3371 13.6082 16.0996 12.2548C18.4111 11.1223 19.6416 9.9782 20.3286 8.89962Z" fill="white"/>
<path fill-rule="evenodd" clip-rule="evenodd" d="M28.3424 20.0559C29.0189 18.9938 29.3506 17.7096 29.3506 15.9489H35.4789C35.4789 18.5095 34.9857 21.033 33.5114 23.3479C32.0475 25.6463 29.8015 27.4485 26.8097 28.9143C24.5046 30.0436 23.1405 31.1249 22.328 32.2434C21.5605 33.3001 21.1011 34.6439 21.1011 36.6907H14.9728C14.9728 33.6306 15.6919 30.9517 17.3698 28.6419C19.0028 26.3937 21.351 24.7645 24.1134 23.411C26.4249 22.2786 27.6555 21.1345 28.3424 20.0559Z" fill="white"/>
</svg>
