<svg width="42" height="42" viewBox="0 0 42 42" fill="none" xmlns="http://www.w3.org/2000/svg">
<rect width="41.4365" height="41.4365" rx="13" fill="white"/>
<path d="M24.7646 7.4585C24.7689 8.6423 24.7717 9.82681 24.7782 11.0106C24.7782 11.1121 24.7518 11.1514 24.6448 11.1499C24.3245 11.1442 24.0043 11.1421 23.6848 11.1499C23.5243 11.1542 23.5486 11.0535 23.5486 10.957C23.5486 10.5298 23.5486 10.1019 23.5486 9.67464V9.41745L23.5022 9.40173C23.239 9.80538 22.9766 10.209 22.6956 10.6398C22.416 10.214 22.1471 9.80324 21.8326 9.32314C21.8326 9.89825 21.8176 10.3919 21.839 10.8849C21.849 11.1185 21.7727 11.1692 21.5594 11.1521C21.3212 11.1328 21.0787 11.1335 20.8398 11.1521C20.6529 11.1664 20.623 11.0921 20.6237 10.9263C20.6301 9.83967 20.6272 8.75303 20.6258 7.66711C20.6258 7.59781 20.6101 7.5278 20.6016 7.4585C21.0466 7.4585 21.4909 7.4585 21.936 7.4585C22.1863 7.88644 22.4367 8.31366 22.7027 8.76732C22.9759 8.31009 23.2298 7.88429 23.4844 7.4585C23.9116 7.4585 24.3381 7.4585 24.7653 7.4585H24.7646Z" fill="#030303"/>
<path d="M16.1718 7.4585C16.1661 8.47298 16.1633 9.48746 16.1518 10.5019C16.1497 10.712 16.2488 10.992 16.1055 11.1135C15.985 11.2164 15.7154 11.1464 15.5114 11.1464C15.121 11.1473 14.9256 10.9499 14.9251 10.5541C14.9251 10.3498 14.9971 10.0711 14.8937 9.95969C14.7703 9.82681 14.49 9.92183 14.2782 9.91897C13.8061 9.91326 13.8061 9.91683 13.8061 10.3812C13.8061 10.577 13.7975 10.7734 13.8089 10.9692C13.8168 11.1099 13.7704 11.1549 13.6299 11.1499C13.346 11.1399 13.0601 11.1356 12.7769 11.1514C12.5979 11.1614 12.5551 11.1021 12.5565 10.9292C12.5644 9.87825 12.5608 8.82733 12.5594 7.77642C12.5594 7.67068 12.5487 7.56423 12.543 7.4585C12.9524 7.4585 13.361 7.4585 13.7704 7.4585C13.7768 7.79499 13.7897 8.13148 13.7854 8.46726C13.784 8.61801 13.8068 8.69659 13.9851 8.68445C14.2319 8.66802 14.4815 8.66802 14.729 8.68445C14.908 8.69588 14.9308 8.61729 14.9287 8.46726C14.9251 8.13077 14.9379 7.79428 14.9437 7.4585C15.353 7.4585 15.7617 7.4585 16.1711 7.4585H16.1718Z" fill="#030303"/>
<path d="M20.068 7.4585C20.0744 7.82214 20.0751 8.18578 20.0887 8.54871C20.0937 8.6773 20.0352 8.69231 19.9304 8.69016C19.6822 8.68516 19.4332 8.69802 19.185 8.68516C19.0296 8.67659 18.996 8.7316 18.9975 8.87877C19.0046 9.56319 18.9953 10.2476 19.0046 10.932C19.0067 11.1013 18.9689 11.1642 18.7892 11.1528C18.5332 11.1364 18.2743 11.1364 18.0175 11.1528C17.8278 11.1649 17.7607 11.1242 17.7657 10.9135C17.7821 10.2469 17.7636 9.58034 17.7772 8.91378C17.7807 8.7216 17.7251 8.6723 17.5418 8.68588C17.3121 8.70231 17.0803 8.68159 16.85 8.69302C16.7152 8.69945 16.6859 8.64944 16.6902 8.52513C16.7016 8.17006 16.7009 7.81499 16.7045 7.45993C17.8249 7.45993 18.9461 7.45993 20.0666 7.45993L20.068 7.4585Z" fill="#030303"/>
<path d="M26.6326 7.4585C26.629 8.23222 26.629 9.00594 26.6183 9.77966C26.6162 9.93326 26.6954 9.92612 26.8002 9.9254C27.2531 9.92326 27.706 9.92969 28.1589 9.92111C28.3065 9.91826 28.3621 9.95612 28.3557 10.1119C28.3443 10.3962 28.3465 10.6813 28.355 10.9656C28.3586 11.0949 28.3365 11.1521 28.1853 11.1514C27.3059 11.1442 26.4265 11.1464 25.5478 11.1492C25.4415 11.1492 25.3895 11.1342 25.3902 11.007C25.3987 9.82395 25.4009 8.64158 25.4052 7.4585H26.6326Z" fill="#030303"/>
<path d="M30.1017 13.0963C29.9455 14.828 29.7922 16.5212 29.641 18.2144C29.509 19.6947 29.3799 21.1757 29.248 22.6567C29.0947 24.3763 28.9399 26.0966 28.7865 27.8162C28.6546 29.2965 28.517 30.7768 28.4007 32.2593C28.38 32.5264 28.3123 32.6536 28.0348 32.7293C25.5778 33.398 23.1258 34.0853 20.6716 34.7669C20.5268 34.8069 20.3884 34.8255 20.2315 34.7812C17.7453 34.0839 15.2576 33.3916 12.767 32.7093C12.5659 32.6543 12.506 32.5665 12.4889 32.3678C12.3034 30.2039 12.1066 28.0413 11.9154 25.878C11.7478 23.9805 11.5852 22.083 11.4162 20.1855C11.23 18.0929 11.0396 16.0011 10.8513 13.9093C10.8256 13.6256 10.8099 13.3406 10.7779 13.0577C10.76 12.9012 10.7928 12.8148 10.9697 12.8419C11.0047 12.8476 11.041 12.8426 11.076 12.8426C17.3188 12.8426 23.5608 12.8433 29.8036 12.8391C30.024 12.8391 30.1823 12.8533 30.1003 13.097L30.1017 13.0963ZM20.4441 28.0849C19.5789 27.8584 18.7145 27.6291 17.848 27.409C17.7096 27.374 17.7246 27.284 17.716 27.189C17.6682 26.6667 17.6162 26.1452 17.5734 25.6223C17.5634 25.4994 17.5434 25.4286 17.3922 25.4301C16.6997 25.4372 16.0071 25.4358 15.3139 25.4308C15.1684 25.4301 15.132 25.4844 15.1449 25.6223C15.249 26.7732 15.3503 27.9241 15.4473 29.0758C15.4587 29.2144 15.5257 29.2701 15.652 29.3051C17.2496 29.7466 18.8457 30.1924 20.4426 30.6368C20.4426 31.3405 20.4419 32.0442 20.4412 32.7486C20.4412 33.1387 20.4426 33.1437 20.805 33.043C21.8969 32.7401 22.9867 32.4321 24.0786 32.1285C24.9059 31.8985 25.7333 31.6699 26.5613 31.4441C26.7368 31.3962 26.8452 31.3262 26.8737 31.1133C26.9008 30.9083 26.8858 30.7054 26.9065 30.5025C26.98 29.7902 27.0477 29.0772 27.1119 28.3642C27.1547 27.8884 27.1847 27.4112 27.2275 26.9354C27.2931 26.2045 27.3665 25.4744 27.4322 24.7435C27.4742 24.2763 27.5063 23.8083 27.5491 23.3411C27.614 22.6281 27.6875 21.9158 27.7517 21.2028C27.7945 20.727 27.8244 20.2498 27.8672 19.7733C27.9328 19.0424 28.0056 18.3123 28.0726 17.5814C28.1161 17.1056 28.1518 16.6291 28.196 16.1533C28.2409 15.6689 28.2894 15.1852 28.3415 14.7023C28.3615 14.5158 28.2887 14.4587 28.1019 14.4587C25.6291 14.4637 23.1564 14.4651 20.6837 14.4579C20.4697 14.4579 20.4362 14.5401 20.4384 14.7259C20.4476 15.4388 20.4426 16.1511 20.4426 16.8641C20.3364 16.8691 20.2301 16.8784 20.1238 16.8784C18.2837 16.8791 16.4436 16.882 14.6035 16.8748C14.4003 16.8741 14.3418 16.922 14.3696 17.1292C14.421 17.5171 14.4438 17.9086 14.4794 18.298C14.6513 20.1762 14.8303 22.0544 14.9873 23.9341C15.0086 24.192 15.0985 24.232 15.3232 24.2306C16.781 24.222 18.2388 24.2256 19.6966 24.227C19.9448 24.227 20.193 24.2384 20.4412 24.2448C20.4419 25.5251 20.4434 26.8046 20.4441 28.0849Z" fill="#FE4C1F"/>
<path d="M20.4426 16.8638C20.4426 16.1508 20.4468 15.4386 20.4383 14.7256C20.4361 14.5398 20.4697 14.4569 20.6836 14.4576C23.1563 14.4648 25.6291 14.4641 28.1018 14.4584C28.2886 14.4584 28.3614 14.5148 28.3414 14.702C28.2901 15.1856 28.2409 15.6693 28.1959 16.153C28.1517 16.6288 28.116 17.1053 28.0725 17.5811C28.0055 18.312 27.9327 19.0421 27.8671 19.773C27.8243 20.2488 27.7951 20.726 27.7516 21.2025C27.6874 21.9155 27.6139 22.6278 27.549 23.3408C27.5062 23.808 27.4741 24.276 27.4321 24.7432C27.3657 25.4741 27.2923 26.2042 27.2274 26.9351C27.1846 27.4109 27.1546 27.8881 27.1118 28.3639C27.0476 29.0769 26.9799 29.7899 26.9064 30.5022C26.8857 30.7051 26.9007 30.908 26.8736 31.113C26.8451 31.3259 26.7374 31.3959 26.5612 31.4438C25.7332 31.6695 24.9059 31.8982 24.0785 32.1282C22.9873 32.4318 21.8968 32.7398 20.8049 33.0427C20.4426 33.1434 20.4411 33.1384 20.4411 32.7483C20.4411 32.0446 20.4418 31.3409 20.4426 30.6365C20.4468 30.6279 20.4468 30.6186 20.4426 30.6101C20.4946 30.6008 20.5481 30.5965 20.5987 30.5829C21.9831 30.1993 23.3675 29.8149 24.7518 29.4298C25.4187 29.2441 25.4037 29.2419 25.4607 28.5432C25.567 27.2401 25.6918 25.9384 25.8088 24.636C25.8865 23.768 25.965 22.8993 26.0413 22.0313C26.052 21.9084 26.0848 21.7891 25.8758 21.7898C24.0628 21.7991 22.2498 21.7998 20.4376 21.8034L20.4433 21.7805C20.4433 20.9646 20.4433 20.148 20.4426 19.3322C20.4426 19.3229 20.4404 19.3143 20.4376 19.305C22.3297 19.3086 24.2212 19.3107 26.1133 19.3186C26.2588 19.3186 26.2931 19.2514 26.303 19.1271C26.3587 18.4627 26.4122 17.7976 26.4814 17.1346C26.5027 16.9331 26.4528 16.8738 26.246 16.8767C25.5085 16.8888 24.7711 16.8803 24.0343 16.8817C22.8354 16.8845 21.6365 16.8888 20.4376 16.8924C20.4404 16.8838 20.4426 16.8745 20.4426 16.8653V16.8638Z" fill="#FE651E"/>
<path d="M20.4409 24.2448C20.1927 24.2384 19.9445 24.2269 19.6963 24.2269C18.2385 24.2255 16.7807 24.2219 15.3229 24.2305C15.0982 24.2319 15.0084 24.1919 14.987 23.934C14.8301 22.0544 14.651 20.1769 14.4792 18.2979C14.4435 17.9078 14.42 17.5163 14.3693 17.1291C14.3422 16.9227 14.4007 16.8741 14.6033 16.8748C16.4434 16.8827 18.2834 16.8798 20.1235 16.8784C20.2298 16.8784 20.3361 16.8691 20.4424 16.8641C20.4424 16.8734 20.4402 16.8819 20.4374 16.8912C20.4374 17.6957 20.4374 18.5001 20.4374 19.3038C20.4402 19.3124 20.4416 19.3217 20.4424 19.331C19.359 19.326 18.2749 19.3231 17.1915 19.3131C17.0375 19.3117 17.0161 19.3781 17.0289 19.506C17.0981 20.214 17.1666 20.9227 17.2272 21.6314C17.2379 21.7579 17.2828 21.795 17.4055 21.7943C18.4182 21.7865 19.431 21.7836 20.4438 21.7793L20.4381 21.8022C20.4381 22.6045 20.4374 23.4075 20.4366 24.2098C20.4416 24.2212 20.4431 24.2326 20.4409 24.2448Z" fill="#EBE7E6"/>
<path d="M20.4434 30.6363C18.8466 30.1919 17.2504 29.7461 15.6528 29.3046C15.5265 29.2696 15.4595 29.2139 15.4481 29.0753C15.3511 27.9236 15.2498 26.7727 15.1457 25.6218C15.1328 25.4839 15.1699 25.4296 15.3147 25.4303C16.0072 25.4353 16.7005 25.4367 17.393 25.4296C17.5442 25.4282 17.5635 25.4989 17.5742 25.6218C17.6177 26.144 17.6697 26.6663 17.7168 27.1885C17.7254 27.2842 17.7104 27.3735 17.8488 27.4085C18.7153 27.6286 19.5797 27.8579 20.4449 28.0844L20.4399 28.1044C20.4413 28.9396 20.4427 29.7747 20.4442 30.6099C20.4484 30.6184 20.4484 30.6277 20.4442 30.6363H20.4434Z" fill="#EBE7E6"/>
<path d="M20.444 28.0849C20.4433 26.8047 20.4419 25.5252 20.4412 24.2449C20.4433 24.2328 20.4412 24.2213 20.4369 24.2099C20.5339 24.2163 20.6309 24.2278 20.7279 24.2285C21.5459 24.2299 22.364 24.2335 23.1821 24.2263C23.3596 24.2249 23.4238 24.2492 23.4017 24.4592C23.3076 25.353 23.232 26.2489 23.1664 27.1455C23.1528 27.3341 23.0786 27.4041 22.9096 27.4477C22.0851 27.6613 21.2628 27.8849 20.4397 28.1042L20.4447 28.0842L20.444 28.0849Z" fill="#FE651E"/>
<path d="M20.4391 28.1045C21.2621 27.8845 22.0838 27.6609 22.9089 27.448C23.0787 27.4044 23.1521 27.3337 23.1657 27.1458C23.2313 26.2492 23.3076 25.3533 23.4011 24.4595C23.4232 24.2495 23.359 24.2252 23.1814 24.2266C22.3633 24.2338 21.5453 24.2302 20.7272 24.2288C20.6302 24.2288 20.5332 24.2166 20.4362 24.2102C20.4362 23.4079 20.4369 22.6049 20.4376 21.8026C22.2506 21.7997 24.0636 21.799 25.8759 21.789C26.0849 21.7876 26.0521 21.9076 26.0414 22.0305C25.9644 22.8992 25.8866 23.7673 25.8089 24.6353C25.6919 25.9377 25.5671 27.2394 25.4608 28.5425C25.4038 29.2419 25.418 29.2433 24.7519 29.4291C23.3675 29.8141 21.9832 30.1985 20.5988 30.5821C20.5482 30.5964 20.4947 30.6007 20.4426 30.6093C20.4412 29.7741 20.4398 28.939 20.4384 28.1038L20.4391 28.1045Z" fill="#FEFDFD"/>
<path d="M20.4376 19.3037C20.4376 18.4993 20.4376 17.6948 20.4376 16.8911C21.6365 16.8875 22.8354 16.8833 24.0343 16.8804C24.7718 16.879 25.5092 16.8875 26.246 16.8754C26.4521 16.8718 26.502 16.9311 26.4814 17.1333C26.4115 17.7963 26.3587 18.4614 26.303 19.1258C26.2923 19.2501 26.2588 19.318 26.1133 19.3173C24.2212 19.3102 22.3297 19.3073 20.4376 19.3037Z" fill="#FEFDFD"/>
<path d="M20.4439 21.7791C19.4311 21.7834 18.4184 21.7862 17.4056 21.7941C17.2829 21.7948 17.238 21.7576 17.2273 21.6312C17.1667 20.9225 17.0982 20.2138 17.029 19.5058C17.0162 19.3779 17.0376 19.3115 17.1916 19.3129C18.275 19.3229 19.3591 19.3257 20.4425 19.3307C20.4425 20.1466 20.4425 20.9632 20.4432 21.7791H20.4439Z" fill="#FE4C1F"/>
</svg>
