<svg width="44" height="42" viewBox="0 0 44 42" fill="none" xmlns="http://www.w3.org/2000/svg">
<path d="M0.68745 34.957V6.54448C0.825949 6.48566 0.769446 6.35359 0.78939 6.25592C1.5539 2.52234 4.48785 0.0251318 8.23949 0.0173628C17.3604 -0.00372466 26.4825 -0.00816303 35.6035 0.0184737C39.8792 0.0306822 43.1455 3.35695 43.1489 7.6266C43.1555 16.3757 43.15 25.1247 43.1522 33.8738C43.1522 34.3599 43.1189 34.8427 43.0225 35.3177C42.289 38.9758 39.3374 41.4741 35.6046 41.4841C26.4836 41.5096 17.3616 41.5063 8.2406 41.4852C4.66291 41.4763 1.71567 39.1146 0.884675 35.6928C0.824844 35.4465 0.849217 35.1768 0.68745 34.957ZM24.8183 29.3111C25.3158 29.3111 25.8133 29.3111 26.3108 29.3111C26.7503 29.3111 26.8991 29.1091 26.7573 28.7051C26.0027 26.5686 25.2471 24.4333 24.4915 22.2979C23.1652 18.5477 21.8367 14.7974 20.5138 11.045C20.4251 10.793 20.3454 10.6132 20.013 10.6177C18.618 10.6365 17.2219 10.6288 15.8259 10.6221C15.5677 10.621 15.4403 10.6987 15.4503 10.9762C15.4747 11.6088 15.304 12.207 15.099 12.7975C14.1251 15.6032 13.1523 18.4089 12.1773 21.2147C11.3119 23.7074 10.4455 26.1991 9.58016 28.6918C9.3785 29.2712 9.40621 29.31 9.99898 29.3111C10.8976 29.3111 11.7961 29.2845 12.6936 29.3222C13.1435 29.3411 13.3263 29.1646 13.4481 28.7584C13.7938 27.6075 14.1861 26.471 14.5362 25.3212C14.6304 25.0093 14.7545 24.8883 15.1024 24.8916C17.0225 24.9127 18.9438 24.9105 20.8639 24.8928C21.1897 24.8894 21.3148 25.0093 21.4101 25.2967C21.8146 26.5165 22.2456 27.7262 22.6522 28.9449C22.7408 29.209 22.8738 29.3244 23.1585 29.3156C23.7103 29.2978 24.2643 29.31 24.8161 29.31L24.8183 29.3111ZM32.7072 22.2047C32.7072 20.0049 32.7005 17.8041 32.7138 15.6043C32.716 15.2558 32.5997 15.1493 32.2607 15.1548C31.2391 15.1715 30.2164 15.1715 29.1937 15.1548C28.8547 15.1493 28.7339 15.258 28.7339 15.6043C28.7428 20.0182 28.7417 24.4333 28.735 28.8472C28.735 29.2012 28.8569 29.3366 29.2214 29.33C30.2153 29.3111 31.2114 29.3056 32.2053 29.3322C32.6163 29.3433 32.7171 29.1946 32.7138 28.8061C32.6983 26.6064 32.7061 24.4055 32.7061 22.2058L32.7072 22.2047ZM32.9543 11.4257C32.9576 10.1027 32.1011 9.22037 30.8037 9.21038C29.5239 9.20039 28.5567 10.1438 28.5544 11.4057C28.5511 12.7453 29.4497 13.6665 30.766 13.6709C32.0391 13.6765 32.952 12.7409 32.9543 11.4268V11.4257Z" fill="#390100"/>
<path d="M24.8183 29.3111C24.2654 29.3111 23.7125 29.2989 23.1608 29.3166C22.876 29.3255 22.743 29.2112 22.6544 28.9459C22.2478 27.7273 21.8168 26.5164 21.4124 25.2978C21.3171 25.0103 21.1908 24.8905 20.8661 24.8938C18.946 24.9116 17.0247 24.9138 15.1046 24.8927C14.7556 24.8894 14.6326 25.0103 14.5384 25.3222C14.1894 26.472 13.7961 27.6085 13.4504 28.7595C13.3285 29.1657 13.1457 29.3421 12.6958 29.3233C11.7995 29.2855 10.8998 29.3122 10.0012 29.3122C9.40843 29.3122 9.38183 29.2722 9.58238 28.6929C10.4477 26.2001 11.3142 23.7085 12.1795 21.2157C13.1534 18.41 14.1273 15.6042 15.1013 12.7985C15.3062 12.2081 15.4769 11.6098 15.4525 10.9772C15.4425 10.6986 15.5688 10.621 15.8281 10.6232C17.2242 10.6309 18.6191 10.6376 20.0152 10.6187C20.3476 10.6143 20.4274 10.7952 20.516 11.046C21.8389 14.7985 23.1663 18.5476 24.4937 22.2989C25.2493 24.4343 26.0039 26.5708 26.7595 28.7062C26.9021 29.1094 26.7532 29.3114 26.313 29.3122C25.8155 29.3122 25.318 29.3122 24.8205 29.3122L24.8183 29.3111ZM17.9853 14.0638C17.9532 14.0638 17.9222 14.0638 17.8901 14.0638C17.1865 16.4011 16.484 18.7385 15.776 21.0748C15.714 21.2779 15.7971 21.3089 15.9721 21.3089C17.284 21.3045 18.597 21.3034 19.9088 21.3089C20.1337 21.3089 20.198 21.2612 20.1204 21.0226C19.8767 20.2745 19.6584 19.5176 19.428 18.7651C18.9482 17.1969 18.4662 15.6298 17.9853 14.0626V14.0638Z" fill="#FD9900"/>
<path d="M32.7072 22.2048C32.7072 24.4045 32.6994 26.6054 32.7149 28.8052C32.7171 29.1936 32.6174 29.3423 32.2063 29.3312C31.2125 29.3046 30.2175 29.3101 29.2225 29.329C28.8591 29.3357 28.7361 29.2014 28.7361 28.8462C28.7428 24.4323 28.7428 20.0173 28.735 15.6033C28.735 15.2559 28.8558 15.1483 29.1948 15.1538C30.2164 15.1705 31.2391 15.1705 32.2617 15.1538C32.6008 15.1483 32.7171 15.2548 32.7149 15.6033C32.7016 17.8031 32.7082 20.0039 32.7082 22.2037L32.7072 22.2048Z" fill="#FD9900"/>
<path d="M32.9543 11.4255C32.9509 12.7395 32.0391 13.6751 30.766 13.6696C29.4497 13.6641 28.5522 12.744 28.5544 11.4044C28.5578 10.1424 29.525 9.19907 30.8037 9.20906C32.1011 9.21905 32.9565 10.1014 32.9543 11.4243V11.4255Z" fill="#FD9900"/>
<path d="M17.9843 14.064C18.4651 15.6311 18.9471 17.1993 19.4268 18.7665C19.6573 19.5189 19.8756 20.2759 20.1193 21.0239C20.1969 21.2614 20.1326 21.3114 19.9077 21.3103C18.5959 21.3047 17.2829 21.3058 15.971 21.3103C15.796 21.3103 15.7129 21.2803 15.7749 21.0761C16.4829 18.7398 17.1854 16.4024 17.889 14.0651C17.9211 14.0651 17.9521 14.0651 17.9843 14.0651V14.064Z" fill="#390100"/>
</svg>
