<svg width="43" height="43" viewBox="0 0 43 43" fill="none" xmlns="http://www.w3.org/2000/svg">
<rect x="0.734833" y="0.86731" width="41.4365" height="41.4365" rx="13" fill="white"/>
<path d="M8.18643 21.5862C8.18643 17.2366 8.1878 12.8871 8.1816 8.53751C8.1816 8.36071 8.21607 8.32549 8.39257 8.32618C17.077 8.33171 25.7607 8.33171 34.4451 8.32618C34.6216 8.32618 34.6568 8.36071 34.6561 8.53751C34.6506 17.2366 34.6506 25.9351 34.6561 34.6342C34.6561 34.811 34.6216 34.8462 34.4451 34.8455C25.7607 34.84 17.077 34.84 8.39257 34.8455C8.21607 34.8455 8.18091 34.811 8.18091 34.6342C8.18711 30.2846 8.18573 25.9351 8.18573 21.5855L8.18643 21.5862ZM28.3448 32.7204C28.8867 32.717 29.3493 32.6776 29.8002 32.563C30.9689 32.2674 31.9169 31.6741 32.3326 30.4801C32.818 29.0871 32.5925 27.2935 30.9344 26.2224C30.1353 25.7065 29.2569 25.3625 28.3972 24.9744C28.0524 24.819 27.7063 24.6629 27.4306 24.3936C27.1003 24.0724 27.0369 23.6739 27.1561 23.2506C27.2727 22.8369 27.5809 22.6166 27.9911 22.5379C28.7405 22.3949 29.3141 22.6636 29.7671 23.3846C29.8643 23.5393 29.9291 23.5531 30.0795 23.4529C30.6007 23.1042 31.1295 22.7665 31.6618 22.4357C31.7948 22.3528 31.8065 22.2961 31.7231 22.1608C31.1736 21.2692 30.42 20.6601 29.3824 20.4439C28.7109 20.3044 28.0318 20.2823 27.3595 20.4287C26.0703 20.7098 25.1126 21.4163 24.781 22.7354C24.4404 24.089 24.7224 25.3149 25.8 26.2831C26.3578 26.7838 27.0252 27.1001 27.7036 27.3971C28.2848 27.6513 28.8805 27.875 29.4224 28.2127C29.8781 28.4966 30.1319 28.8958 30.0484 29.4427C29.9678 29.9724 29.5975 30.2501 29.1149 30.4027C28.1214 30.7162 27.0327 30.393 26.3426 29.5753C26.2213 29.431 26.113 29.2749 26.0096 29.1168C25.9496 29.0249 25.8979 29.0159 25.8041 29.0712C25.2202 29.4158 24.6341 29.7577 24.0446 30.0933C23.9371 30.1548 23.9219 30.2066 23.9826 30.3115C24.1811 30.6562 24.4073 30.9794 24.6844 31.2646C25.709 32.3178 26.9969 32.6949 28.3448 32.7198V32.7204ZM22.5747 24.9799C22.5747 23.5593 22.5713 22.1387 22.5788 20.7174C22.5795 20.5309 22.543 20.4667 22.3424 20.4708C21.6805 20.4846 21.0186 20.4853 20.3567 20.4708C20.1437 20.466 20.0872 20.5192 20.0878 20.7367C20.0961 23.4143 20.094 26.0925 20.0913 28.7708C20.0913 29.0028 20.0809 29.2369 20.0458 29.4655C19.981 29.8834 19.8121 30.2383 19.3791 30.4006C18.7117 30.6513 18.0091 30.4538 17.5851 29.884C17.4624 29.719 17.3514 29.5436 17.25 29.3647C17.1852 29.2501 17.1349 29.228 17.0149 29.3025C16.4385 29.6603 15.8587 30.0118 15.274 30.3557C15.1493 30.4289 15.1596 30.4918 15.2168 30.5995C15.5898 31.3005 16.0986 31.8724 16.8095 32.2384C17.8499 32.7736 18.9489 32.833 20.0692 32.5706C21.2889 32.2847 22.0673 31.5201 22.4051 30.3115C22.5333 29.853 22.5747 29.382 22.5747 28.9068C22.5747 27.5981 22.5747 26.2893 22.5747 24.9806V24.9799Z" fill="#FEDE00"/>
<path d="M28.3447 32.72C26.9969 32.6951 25.7096 32.318 24.6844 31.2648C24.4073 30.9796 24.1811 30.6564 23.9826 30.3118C23.9219 30.2061 23.937 30.1543 24.0446 30.0935C24.6341 29.7579 25.2201 29.416 25.8041 29.0714C25.8979 29.0162 25.9489 29.0251 26.0096 29.117C26.113 29.2752 26.2212 29.4312 26.3426 29.5756C27.0327 30.3933 28.1214 30.7165 29.1149 30.4029C29.5968 30.2503 29.967 29.9727 30.0484 29.443C30.1318 28.896 29.8781 28.4968 29.4224 28.213C28.8805 27.8753 28.2848 27.6515 27.7036 27.3973C27.0251 27.1004 26.3577 26.7848 25.8 26.2834C24.7223 25.3151 24.4404 24.0892 24.7809 22.7356C25.1133 21.4158 26.0702 20.71 27.3595 20.4289C28.0317 20.2825 28.7108 20.3046 29.3824 20.4441C30.42 20.6603 31.1743 21.2694 31.7231 22.161C31.8065 22.2964 31.7948 22.353 31.6617 22.4359C31.1295 22.7674 30.6007 23.1044 30.0794 23.4532C29.9291 23.5533 29.8643 23.5402 29.7671 23.3848C29.3134 22.6638 28.7398 22.3951 27.9911 22.5381C27.5808 22.6168 27.2726 22.8365 27.1561 23.2508C27.0368 23.6749 27.101 24.0727 27.4305 24.3938C27.7063 24.6625 28.0524 24.8185 28.3971 24.9746C29.2562 25.3628 30.1353 25.7067 30.9344 26.2226C32.5925 27.2931 32.8179 29.0866 32.3326 30.4803C31.9168 31.6744 30.9688 32.2676 29.8002 32.5632C29.3486 32.6772 28.886 32.7172 28.3447 32.7207V32.72Z" fill="#020100"/>
<path d="M22.5747 24.9798C22.5747 26.2885 22.5747 27.5973 22.5747 28.906C22.5747 29.3812 22.5327 29.8529 22.4051 30.3107C22.068 31.5193 21.2889 32.2832 20.0692 32.5698C18.9489 32.8329 17.8499 32.7728 16.8095 32.2376C16.0986 31.8722 15.5898 31.2997 15.2168 30.5987C15.1596 30.491 15.1493 30.4288 15.2741 30.3549C15.8587 30.011 16.4385 29.6595 17.0149 29.3017C17.1349 29.2271 17.1845 29.2486 17.25 29.3639C17.3514 29.5428 17.4624 29.7182 17.5851 29.8832C18.0091 30.453 18.711 30.6505 19.3791 30.3998C19.8121 30.2375 19.9803 29.8826 20.0458 29.4647C20.0809 29.2361 20.0913 29.002 20.0913 28.77C20.094 26.0917 20.0961 23.4142 20.0878 20.7359C20.0878 20.5184 20.1437 20.4652 20.3567 20.47C21.0186 20.4852 21.6805 20.4845 22.3424 20.47C22.543 20.4659 22.5802 20.5301 22.5788 20.7166C22.5713 22.1372 22.5747 23.5578 22.5747 24.9791V24.9798Z" fill="#020100"/>
</svg>
