<svg width="42" height="43" viewBox="0 0 42 43" fill="none" xmlns="http://www.w3.org/2000/svg">
<path d="M0.15329 11.5929C0.15329 5.6474 4.97305 0.827637 10.9185 0.827637H30.7928C36.7383 0.827637 41.5581 5.6474 41.5581 11.5929V31.4672C41.5581 37.4126 36.7383 42.2324 30.7928 42.2324H10.9185C4.97305 42.2324 0.15329 37.4126 0.15329 31.4672V11.5929Z" fill="white"/>
<path d="M9.44873 31.0133C9.22139 30.582 9.01197 30.1879 8.80668 29.7918C8.5449 29.2874 8.66544 29.0583 9.22345 29.021C11.0642 28.8996 12.9049 28.7844 14.7457 28.6657C19.2387 28.3751 23.7317 28.0832 28.2247 27.7927C29.7341 27.6954 31.2435 27.5995 32.7522 27.5015C32.9898 27.4863 33.2248 27.4774 33.326 27.7541C33.4287 28.0349 33.2234 28.1716 33.0443 28.3179C31.2393 29.7856 29.287 31.0195 27.1934 32.0311C27.1018 32.0753 27.0136 32.1257 26.9206 32.1753C27.2561 32.5342 27.9147 32.6191 28.4424 32.3458C28.7042 32.2105 28.9398 32.0208 29.1795 31.8455C29.4475 31.6495 29.6948 31.4218 29.9725 31.2431C30.8846 30.6551 31.858 30.691 32.7295 31.3411C33.014 31.5529 33.275 31.7958 33.5465 32.0256C33.8572 32.2885 34.1858 32.5045 34.6122 32.5321C34.8457 32.5473 35.0063 32.6908 34.9904 32.9365C34.9732 33.198 34.7948 33.3126 34.5399 33.3029C34.0507 33.2843 33.6298 33.0835 33.2537 32.7867C32.9747 32.5666 32.7136 32.3244 32.4401 32.0981C31.6637 31.457 30.9714 31.4425 30.1653 32.0525C29.8822 32.2664 29.6156 32.5038 29.3304 32.715C28.2964 33.4782 27.2513 33.4782 26.2241 32.715C25.9389 32.5031 25.6765 32.2623 25.3954 32.0449C24.6431 31.4625 23.9501 31.4618 23.1999 32.0429C22.9099 32.2671 22.6377 32.5149 22.3429 32.7322C21.4032 33.4251 20.3954 33.4382 19.4419 32.764C19.1243 32.539 18.8336 32.2775 18.5271 32.0366C17.8271 31.488 17.2808 31.468 16.552 31.9773C16.2137 32.2133 15.8968 32.4797 15.5579 32.7143C14.5748 33.394 13.5622 33.4009 12.5619 32.7716C12.1079 32.4859 11.6946 32.1346 11.2681 31.8062C10.6233 31.3093 10.4972 31.2893 9.80214 31.7254C9.28753 32.0477 8.80392 32.4196 8.28518 32.7336C7.97586 32.9206 7.63348 33.0662 7.28903 33.1787C7.04516 33.2581 6.78337 33.1953 6.72826 32.8868C6.67383 32.5846 6.8743 32.4866 7.14229 32.412C7.41234 32.3368 7.67411 32.2009 7.91247 32.0498C8.42433 31.7247 8.91827 31.3728 9.44873 31.0119V31.0133ZM9.67882 29.7725C9.83658 30.0755 9.94955 30.3129 10.0846 30.5364C10.1218 30.5972 10.2341 30.6593 10.3002 30.6482C10.8424 30.5564 11.253 30.8221 11.6525 31.123C12.0645 31.4335 12.4565 31.7723 12.885 32.058C13.7117 32.6101 14.3992 32.588 15.2086 32.0152C15.5551 31.7703 15.8789 31.4929 16.233 31.2603C17.1541 30.6558 18.0297 30.691 18.9108 31.3535C19.2132 31.5805 19.4957 31.8338 19.7967 32.0629C20.529 32.6184 21.2096 32.6197 21.9371 32.0663C22.2196 31.851 22.4834 31.6109 22.7672 31.3969C23.7627 30.6455 24.814 30.6303 25.8032 31.3921C26.0754 31.6019 26.2917 31.6053 26.5741 31.468C28.2785 30.6399 29.9277 29.7194 31.4405 28.5684C31.4956 28.5263 31.5356 28.4642 31.632 28.3572C24.289 28.8306 17.0204 29.2998 9.67882 29.7732V29.7725Z" fill="black"/>
<path d="M13.3803 19.5092C13.4023 16.9179 12.7927 14.8809 11.9495 12.9052C11.585 12.0523 11.1434 11.2325 10.728 10.4016C10.6288 10.2036 10.5524 10.0187 10.7239 9.83233C10.8961 9.64601 11.0931 9.70122 11.2915 9.79369C15.2762 11.6555 18.5967 14.335 21.1849 17.9027C22.8568 20.2082 24.1299 22.7111 24.8112 25.4934C24.896 25.8385 24.9587 26.1897 25.0145 26.5402C25.0937 27.0371 24.8422 27.2372 24.3765 27.0537C22.396 26.2746 20.3499 25.8115 18.2157 25.7936C15.6922 25.7729 13.3913 26.5306 11.2364 27.8051C11.0904 27.8914 10.8631 27.9328 10.7067 27.8852C10.4842 27.8183 10.4483 27.505 10.624 27.3042C12.6797 24.9503 13.2825 22.1086 13.381 19.5071L13.3803 19.5092ZM24.1685 26.1352C23.3818 22.7028 21.7794 19.7831 19.6231 17.1519C17.5199 14.5848 14.9606 12.5774 11.9495 10.9703C12.0245 11.158 12.0597 11.2484 12.0962 11.3381C12.5095 12.3456 12.9773 13.3344 13.3259 14.364C14.6968 18.4078 14.3902 22.337 12.4234 26.1317C12.4007 26.1759 12.391 26.2276 12.3518 26.3505C16.2689 24.4901 20.168 24.7447 24.1685 26.1359V26.1352Z" fill="black"/>
<path d="M18.5615 12.5056C19.103 12.7243 19.608 12.883 20.0702 13.1239C21.5803 13.9098 22.8251 15.0457 24.0672 16.1905C27.1114 18.9956 29.0769 22.4798 30.4933 26.318C30.5704 26.527 30.6724 26.7831 30.4478 26.91C30.2942 26.997 30.0228 26.9866 29.8512 26.9114C28.9088 26.4987 27.9616 26.2144 26.9213 26.5036C26.6354 26.5829 26.4976 26.3966 26.4026 26.133C25.8597 24.6231 25.3727 23.0884 24.7347 21.6193C23.7489 19.351 22.5881 17.1649 20.7997 15.4073C20.0433 14.6634 19.1705 14.0389 18.3665 13.3419C18.2425 13.2343 18.1241 13.0093 18.1516 12.8678C18.1771 12.7347 18.3996 12.6394 18.5615 12.5062V12.5056ZM21.8675 15.3438C22.7969 16.4175 23.5464 17.6107 24.2312 18.8459C25.3809 20.9195 26.2972 23.094 26.9854 25.3629C27.0605 25.6113 27.159 25.6769 27.4166 25.6486C27.7666 25.6099 28.1283 25.6058 28.4775 25.6486C28.7993 25.6879 29.1113 25.8087 29.4785 25.9074C27.9106 21.6441 25.4216 18.1103 21.8668 15.3445L21.8675 15.3438Z" fill="black"/>
</svg>
