<svg width="43" height="43" viewBox="0 0 43 43" fill="none" xmlns="http://www.w3.org/2000/svg">
<path d="M35.0812 0.826294H7.80585C3.67546 0.826294 0.327118 4.19316 0.327118 8.34639V34.711C0.327118 38.8642 3.67546 42.2311 7.80585 42.2311H35.0812C39.2116 42.2311 42.56 38.8642 42.56 34.711V8.34639C42.56 4.19316 39.2116 0.826294 35.0812 0.826294Z" fill="#EAEAEA"/>
<path d="M42.5599 29.6681H0.327057V30.022H42.5599V29.6681Z" fill="#ACC6E6"/>
<path d="M42.5599 8.9657H0.327057V9.31959H42.5599V8.9657Z" fill="#ACC6E6"/>
<path d="M42.5599 19.2285H0.327057V19.5823H42.5599V19.2285Z" fill="#ACC6E6"/>
<path d="M40.4625 39.9307H2.42477C2.54091 40.0528 2.66057 40.1713 2.78727 40.2846H40.1L40.4625 39.9307Z" fill="#ACC6E6"/>
<path d="M11.0616 0.826294H10.7096V42.2311H11.0616V0.826294Z" fill="#ACC6E6"/>
<path d="M21.6195 0.826294H21.2676V42.2311H21.6195V0.826294Z" fill="#ACC6E6"/>
<path d="M32.1777 0.826294H31.8258V42.2311H32.1777V0.826294Z" fill="#ACC6E6"/>
<path d="M9.83694 29.8626V11.658C9.83694 11.5253 9.89361 11.4586 10.0069 11.4586C10.3087 11.4586 10.5845 11.4541 11.0001 11.4442C11.4158 11.4343 11.8639 11.4255 12.3458 11.4157C12.8276 11.406 13.3373 11.3968 13.8756 11.3873C14.4139 11.3777 14.9475 11.3731 15.477 11.3729C16.9122 11.3729 18.121 11.5533 19.1034 11.9142C19.9896 12.2156 20.7978 12.712 21.4691 13.3671C22.0382 13.935 22.4779 14.6202 22.7581 15.3756C23.0231 16.1106 23.1574 16.8869 23.1547 17.6688C23.1547 19.1885 22.8053 20.4419 22.1065 21.4292C21.403 22.4205 20.4142 23.1712 19.2734 23.5801C18.0834 24.0265 16.7612 24.178 15.307 24.178C14.8913 24.178 14.5986 24.1732 14.4287 24.1636C14.2588 24.1541 14.0039 24.1493 13.6638 24.1493V29.8331C13.6687 29.8679 13.6655 29.9034 13.6545 29.9368C13.6434 29.9702 13.6247 30.0005 13.6 30.0254C13.5753 30.0502 13.5451 30.069 13.5119 30.0801C13.4787 30.0912 13.4434 30.0944 13.4088 30.0895H10.0353C9.90293 30.0897 9.83694 30.0141 9.83694 29.8626ZM13.6632 14.8771V20.8145C13.9084 20.8336 14.1351 20.8431 14.3432 20.8429H15.2781C15.966 20.8406 16.6494 20.7309 17.3039 20.5177C17.8652 20.3501 18.3667 20.0238 18.7488 19.5776C19.117 19.1412 19.3012 18.5337 19.3013 17.7551C19.3163 17.2041 19.1736 16.6603 18.8904 16.1883C18.5929 15.732 18.1628 15.3789 17.6586 15.177C17.0001 14.9197 16.2967 14.7986 15.5905 14.821C15.1372 14.821 14.7358 14.8257 14.3865 14.8352C14.0371 14.8446 13.7963 14.8588 13.6641 14.8778L13.6632 14.8771Z" fill="#1473E6"/>
<path d="M34.1083 19.7348C33.5759 19.4597 33.0088 19.2584 32.4225 19.1365C31.7766 18.9875 31.1163 18.9111 30.4536 18.9086C30.0951 18.8989 29.7371 18.9421 29.3911 19.0369C29.1709 19.0862 28.9751 19.2123 28.8386 19.3929C28.7465 19.5375 28.6977 19.7056 28.6978 19.8772C28.7029 20.0438 28.7627 20.2041 28.8678 20.333C29.0333 20.5277 29.2355 20.6874 29.4627 20.803C29.8667 21.0217 30.2829 21.2167 30.7093 21.3869C31.6601 21.7069 32.5686 22.1422 33.4148 22.683C33.9913 23.0489 34.4683 23.5531 34.8031 24.1502C35.0844 24.7155 35.2253 25.3408 35.2138 25.9728C35.2307 26.8075 34.9935 27.6275 34.5338 28.3229C34.0417 29.0288 33.3582 29.5776 32.5647 29.9039C31.7051 30.2836 30.6427 30.4735 29.3776 30.4737C28.5741 30.4818 27.772 30.4054 26.9844 30.2458C26.3635 30.1313 25.7592 29.9399 25.1852 29.676C25.1233 29.6438 25.0718 29.5946 25.0366 29.5341C25.0015 29.4735 24.9843 29.4042 24.9869 29.3341V26.2585C24.9834 26.2284 24.9882 26.198 25.0006 26.1703C25.013 26.1427 25.0326 26.119 25.0573 26.1017C25.0816 26.0879 25.1096 26.0819 25.1374 26.0845C25.1652 26.087 25.1916 26.0981 25.213 26.1161C25.891 26.518 26.6272 26.8111 27.3951 26.9849C28.0717 27.1554 28.7658 27.2463 29.4633 27.2556C30.1242 27.2556 30.6106 27.1701 30.9224 26.9992C31.0632 26.9344 31.1823 26.83 31.2653 26.6985C31.3483 26.567 31.3916 26.4142 31.3899 26.2585C31.3899 26.012 31.2483 25.7746 30.965 25.5463C30.6817 25.3181 30.1056 25.0427 29.2368 24.7202C28.3472 24.4088 27.5037 23.9776 26.7294 23.4382C26.1756 23.0509 25.7196 22.5387 25.3978 21.9425C25.1192 21.3812 24.9784 20.7609 24.9871 20.1336C24.9855 19.3799 25.1914 18.6404 25.5821 17.997C26.0274 17.2886 26.6669 16.7247 27.4236 16.3732C28.2544 15.9557 29.2932 15.7468 30.54 15.7465C31.2703 15.7406 32 15.793 32.722 15.9033C33.2448 15.9699 33.7559 16.1089 34.2408 16.3162C34.2793 16.3273 34.3147 16.3472 34.3442 16.3744C34.3737 16.4016 34.3965 16.4353 34.4108 16.4728C34.43 16.5424 34.4395 16.6144 34.4392 16.6866V19.5644C34.4411 19.5979 34.4343 19.6313 34.4194 19.6613C34.4045 19.6913 34.382 19.7168 34.3542 19.7353C34.3163 19.7543 34.2745 19.7641 34.2322 19.7641C34.1899 19.7641 34.1482 19.7543 34.1103 19.7353L34.1083 19.7348Z" fill="#1473E6"/>
</svg>
