<svg width="43" height="42" viewBox="0 0 43 42" fill="none" xmlns="http://www.w3.org/2000/svg">
<path d="M0 35.0373V6.53663C0.108602 6.50222 0.0764719 6.40453 0.0908783 6.33016C0.862171 2.43386 3.82321 0.00172591 7.80268 0.000615856C16.7601 -0.000494201 25.7175 -0.000490949 34.6749 0.00394928C35.1304 0.00394928 35.5914 0.0150498 36.0391 0.0872035C39.8268 0.691074 42.4665 3.78036 42.4687 7.62227C42.4743 16.3728 42.4699 25.1245 42.4721 33.8751C42.4721 34.3613 42.4377 34.8442 42.3424 35.3193C41.6088 38.9769 38.6544 41.4723 34.9187 41.4834C25.7951 41.509 16.6726 41.5078 7.54893 41.4834C3.83431 41.4734 0.924214 39.0258 0.130758 35.3581C0.107486 35.2505 0.152929 35.0984 0 35.0373ZM9.54917 19.9528C9.54917 22.9022 9.55473 25.8505 9.54254 28.7999C9.54033 29.1862 9.63561 29.3405 10.049 29.3272C10.9876 29.2995 11.9296 29.2983 12.8682 29.3272C13.2926 29.3405 13.4145 29.1984 13.4101 28.7833C13.3912 27.1226 13.4101 25.4609 13.3946 23.7991C13.3912 23.4672 13.491 23.3762 13.8134 23.3895C15.0291 23.4383 16.2426 23.4372 17.4505 23.2374C20.6177 22.7135 22.9637 20.5611 22.9315 16.879C22.9083 14.1239 21.4078 11.9903 18.8058 11.0812C17.6256 10.6694 16.4088 10.5428 15.1765 10.5517C13.5187 10.5628 11.8608 10.6239 10.203 10.6616C9.55805 10.676 9.54695 10.5328 9.54806 11.3554C9.55139 14.2216 9.54917 17.0866 9.54917 19.9528ZM24.8199 27.0471C24.8199 27.4623 24.8443 27.8797 24.8132 28.2926C24.7833 28.6945 24.9562 28.8932 25.3152 29.033C26.3702 29.4471 27.4729 29.6214 28.5921 29.6802C30.0993 29.7601 31.5864 29.6369 32.934 28.8821C34.3015 28.1161 35.0417 26.9361 35.1027 25.3443C35.1636 23.7259 34.4466 22.5636 33.0758 21.7599C32.3344 21.3259 31.5598 20.9696 30.7586 20.6621C30.1159 20.4157 29.4643 20.1692 28.9168 19.733C28.6586 19.5276 28.4813 19.2612 28.5644 18.9027C28.6486 18.543 28.8869 18.3365 29.2393 18.2477C29.6028 18.1556 29.9696 18.109 30.3464 18.1223C31.5853 18.1678 32.7877 18.3654 33.9158 18.916C34.2372 19.0725 34.3835 18.9682 34.3868 18.6074C34.3946 17.7493 34.3846 16.8912 34.3912 16.0321C34.3935 15.7135 34.2704 15.5336 33.9568 15.4237C33.0315 15.0996 32.0696 15.0097 31.1055 14.9609C29.6826 14.8887 28.2951 15.0164 27.0096 15.729C24.4331 17.1554 23.9433 20.974 26.8068 22.7879C27.689 23.3462 28.6398 23.7447 29.6006 24.1299C30.086 24.3253 30.5869 24.5029 30.9747 24.877C31.4745 25.3599 31.3448 26.007 30.6977 26.2657C30.3475 26.4066 29.9762 26.4566 29.6028 26.4633C28.0846 26.4899 26.6428 26.1724 25.2942 25.462C24.8587 25.2333 24.8232 25.2522 24.821 25.7573C24.8188 26.1869 24.821 26.6153 24.821 27.0449L24.8199 27.0471Z" fill="#001834"/>
<path d="M9.5492 19.9531C9.5492 17.0869 9.55142 14.2219 9.54809 11.3557C9.54809 10.5331 9.55808 10.6763 10.203 10.6619C11.8609 10.6242 13.5187 10.5631 15.1765 10.552C16.4088 10.5431 17.6267 10.6697 18.8058 11.0815C21.4078 11.9895 22.9083 14.1242 22.9316 16.8793C22.9637 20.5614 20.6177 22.7138 17.4505 23.2377C16.2426 23.4375 15.0291 23.4386 13.8135 23.3898C13.491 23.3765 13.3913 23.4675 13.3946 23.7994C13.4112 25.4612 13.3913 27.1218 13.4101 28.7836C13.4145 29.1987 13.2927 29.3408 12.8682 29.3275C11.9296 29.2986 10.9887 29.2998 10.049 29.3275C9.63453 29.3397 9.54036 29.1854 9.54257 28.8002C9.55587 25.8508 9.5492 22.9025 9.5492 19.9531ZM13.4223 17.058C13.4223 17.9428 13.4223 18.8286 13.4223 19.7133C13.4223 19.882 13.399 20.0552 13.6528 20.0607C14.8807 20.0863 16.1152 20.1562 17.2865 19.6689C18.009 19.3681 18.6152 18.9296 18.9056 18.1614C19.596 16.3332 18.6241 14.5771 16.7158 14.1752C15.7018 13.961 14.6812 14.0698 13.6617 14.0687C13.4101 14.0687 13.4212 14.2285 13.4212 14.4028C13.4234 15.2875 13.4223 16.1733 13.4212 17.058H13.4223Z" fill="#00A7FD"/>
<path d="M24.8199 27.0472C24.8199 26.6176 24.8177 26.1891 24.8199 25.7595C24.8232 25.2544 24.8587 25.2355 25.2931 25.4642C26.6417 26.1747 28.0835 26.4921 29.6017 26.4655C29.9751 26.4588 30.3464 26.4078 30.6965 26.2679C31.3437 26.0081 31.4734 25.3621 30.9736 24.8792C30.5857 24.5051 30.0848 24.3275 29.5995 24.1321C28.6387 23.7458 27.6878 23.3485 26.8057 22.7901C23.9422 20.9763 24.432 17.1577 27.0085 15.7312C28.294 15.0197 29.6814 14.8909 31.1043 14.9631C32.0696 15.0119 33.0304 15.1018 33.9557 15.426C34.2693 15.5359 34.3934 15.7157 34.3901 16.0343C34.3824 16.8924 34.3934 17.7504 34.3857 18.6096C34.3823 18.9704 34.2361 19.0747 33.9147 18.9182C32.7855 18.3676 31.5831 18.17 30.3453 18.1245C29.9696 18.1112 29.6017 18.1578 29.2382 18.25C28.8858 18.3388 28.6475 18.5452 28.5633 18.9049C28.4802 19.2634 28.6575 19.5299 28.9157 19.7352C29.4631 20.1715 30.1136 20.4179 30.7575 20.6643C31.5587 20.9718 32.3333 21.327 33.0747 21.7622C34.4455 22.5659 35.1625 23.7281 35.1016 25.3465C35.0417 26.9384 34.3014 28.1184 32.9328 28.8843C31.5842 29.6391 30.0981 29.7635 28.591 29.6824C27.4717 29.6225 26.3702 29.4493 25.3141 29.0353C24.9551 28.8943 24.7822 28.6956 24.8121 28.2949C24.8431 27.8819 24.8188 27.4645 24.8188 27.0494L24.8199 27.0472Z" fill="#00A7FD"/>
<path d="M13.4223 17.0578C13.4223 16.173 13.4234 15.2872 13.4223 14.4025C13.4223 14.2282 13.4112 14.0673 13.6627 14.0684C14.6822 14.0684 15.7018 13.9607 16.7169 14.1749C18.624 14.5768 19.597 16.3329 18.9066 18.1612C18.6163 18.9293 18.0101 19.3689 17.2876 19.6686C16.1162 20.1559 14.8828 20.086 13.6538 20.0605C13.399 20.0549 13.4222 19.8817 13.4233 19.713C13.4233 18.8283 13.4233 17.9425 13.4233 17.0578H13.4223Z" fill="#001834"/>
</svg>
