<svg width="42" height="42" viewBox="0 0 42 42" fill="none" xmlns="http://www.w3.org/2000/svg">
<path d="M0.565384 31.767V9.72434C0.689678 9.67995 0.643199 9.56736 0.656169 9.48291C1.35438 4.84918 4.53415 1.35981 9.04007 0.272829C9.45078 0.174308 9.8831 0.181885 10.2744 0H32.1187C32.1436 0.0876944 32.216 0.0714571 32.2809 0.0768703C37.6115 0.585715 41.9347 5.23243 41.9725 10.6175C42.0201 17.357 41.9952 24.0965 41.9769 30.8349C41.9715 32.6321 41.51 34.3405 40.5977 35.8908C38.4458 39.5491 35.2228 41.4513 30.986 41.4795C24.5141 41.5228 18.0422 41.4914 11.5713 41.4881C11.1682 41.4881 10.7629 41.4621 10.3608 41.4232C5.65603 40.9663 1.74672 37.4369 0.79668 32.8053C0.725346 32.4589 0.746962 32.0897 0.566466 31.766L0.565384 31.767ZM8.74284 20.724C8.74284 23.6807 8.74824 26.6385 8.73527 29.5952C8.73419 29.9233 8.83038 29.9947 9.14058 29.9904C10.3533 29.9731 11.567 29.9698 12.7797 29.9915C13.1169 29.998 13.2034 29.9092 13.2001 29.5714C13.1828 27.7353 13.1958 25.8991 13.1861 24.0618C13.185 23.8031 13.2488 23.7111 13.5211 23.7165C14.2896 23.7338 15.058 23.7262 15.8265 23.7219C16.7852 23.7154 17.7374 23.6483 18.6723 23.4133C21.0112 22.8233 23.0918 21.1333 23.269 18.1094C23.4214 15.5219 21.9969 13.1856 19.5305 12.1451C18.5361 11.7251 17.4942 11.5226 16.422 11.515C13.9956 11.4977 11.5692 11.515 9.14274 11.4966C8.78175 11.4934 8.73635 11.6179 8.73744 11.9329C8.74932 14.8626 8.74393 17.7933 8.74393 20.723L8.74284 20.724ZM29.6112 17.9828C29.5702 17.4349 29.5291 17.0051 29.5097 16.5753C29.4988 16.3371 29.4091 16.2538 29.1627 16.257C28.0441 16.2689 26.9265 16.27 25.8079 16.257C25.542 16.2538 25.4696 16.335 25.4696 16.5981C25.4771 20.9579 25.4771 25.3166 25.4696 29.6764C25.4696 29.9287 25.5409 29.9937 25.7873 29.9904C26.9589 29.9774 28.1316 29.972 29.3032 29.9926C29.6458 29.9991 29.7582 29.9287 29.755 29.5563C29.7366 26.9514 29.7593 24.3466 29.7345 21.7417C29.7291 21.1647 29.9798 20.7976 30.4078 20.4967C30.7331 20.2682 31.106 20.1654 31.494 20.0874C32.1425 19.9575 32.7834 20.069 33.4265 20.1037C33.6373 20.1156 33.7378 20.0863 33.741 19.8341C33.7508 18.7136 33.7713 17.5941 33.8135 16.4746C33.8243 16.1856 33.7 16.1098 33.4579 16.0632C31.9642 15.7763 30.7418 16.2819 29.8912 17.5486C29.8177 17.658 29.7485 17.7695 29.6112 17.9828Z" fill="#00005B"/>
<path d="M8.74286 20.7239C8.74286 17.7943 8.74717 14.8636 8.73636 11.9339C8.73528 11.6189 8.78176 11.4944 9.14167 11.4976C11.5681 11.5171 13.9945 11.4998 16.421 11.516C17.4931 11.5236 18.535 11.7261 19.5294 12.1461C21.9958 13.1865 23.4203 15.5229 23.2679 18.1104C23.0896 21.1353 21.0101 22.8243 18.6712 23.4143C17.7374 23.6503 16.7841 23.7164 15.8254 23.7229C15.057 23.7283 14.2885 23.7359 13.5201 23.7175C13.2477 23.711 13.1839 23.8041 13.185 24.0628C13.1947 25.899 13.1807 27.7362 13.1991 29.5724C13.2023 29.9102 13.1158 29.999 12.7786 29.9925C11.5659 29.9708 10.3522 29.9741 9.13951 29.9914C8.82931 29.9957 8.73312 29.9232 8.7342 29.5962C8.74825 26.6395 8.74177 23.6817 8.74177 20.725L8.74286 20.7239ZM13.1904 17.6059C13.1904 18.3887 13.2001 19.1714 13.185 19.9531C13.1807 20.201 13.2499 20.2779 13.5006 20.2736C14.4301 20.2584 15.3596 20.2801 16.2891 20.2617C17.9211 20.2292 18.8182 19.2613 18.7555 17.6254C18.6939 16.0198 17.759 15.0162 16.2124 14.9534C15.298 14.9155 14.3804 14.9523 13.4649 14.9383C13.212 14.935 13.1861 15.053 13.1883 15.2587C13.1958 16.0415 13.1915 16.8242 13.1915 17.6059H13.1904Z" fill="#9898FD"/>
<path d="M29.6112 17.984C29.7496 17.7708 29.8187 17.6592 29.8912 17.5499C30.7428 16.2821 31.9642 15.7776 33.4578 16.0645C33.6989 16.1111 33.8243 16.1858 33.8134 16.4759C33.7713 17.5954 33.7508 18.7148 33.741 19.8354C33.7389 20.0876 33.6384 20.1158 33.4265 20.1049C32.7834 20.0703 32.1414 19.9599 31.494 20.0887C31.106 20.1667 30.7331 20.2695 30.4078 20.4979C29.9798 20.7989 29.729 21.1659 29.7344 21.743C29.7604 24.3478 29.7366 26.9527 29.755 29.5575C29.7571 29.9289 29.6458 30.0003 29.3032 29.9938C28.1316 29.9722 26.9589 29.9787 25.7873 29.9917C25.5409 29.9938 25.4695 29.93 25.4695 29.6777C25.4771 25.3179 25.4771 20.9591 25.4695 16.5993C25.4695 16.3362 25.542 16.2551 25.8078 16.2583C26.9265 16.2724 28.044 16.2713 29.1627 16.2583C29.408 16.2561 29.4977 16.3384 29.5096 16.5766C29.5291 17.0075 29.5702 17.4373 29.6112 17.984Z" fill="#9898FD"/>
<path d="M13.1915 17.6073C13.1915 16.8245 13.1958 16.0418 13.1882 15.2601C13.1861 15.0544 13.212 14.9364 13.4649 14.9396C14.3804 14.9526 15.298 14.9169 16.2124 14.9548C17.759 15.0176 18.695 16.0212 18.7555 17.6268C18.8182 19.2626 17.9211 20.2316 16.2891 20.263C15.3596 20.2814 14.4301 20.2598 13.5006 20.2749C13.2498 20.2793 13.1807 20.2024 13.185 19.9545C13.2001 19.1717 13.1904 18.3889 13.1904 17.6073H13.1915Z" fill="#00005B"/>
</svg>
