<svg width="42" height="43" viewBox="0 0 42 43" fill="none" xmlns="http://www.w3.org/2000/svg">
<rect y="0.86731" width="41.4365" height="41.4365" rx="13" fill="white"/>
<path fill-rule="evenodd" clip-rule="evenodd" d="M26.3764 8.32976C25.9955 8.36823 25.8122 8.39866 25.5202 8.47183C24.0075 8.85097 22.3003 9.90951 20.5371 11.5615L20.3696 11.7185L20.1809 11.5404C19.9475 11.3201 19.5753 10.9946 19.3 10.7701C16.8533 8.77454 14.545 7.95723 12.9915 8.53635C11.9454 8.92634 11.2545 10.012 11.0193 11.6353C10.9579 12.0592 10.9419 12.2867 10.9339 12.8456C10.9195 13.8497 11.0041 14.7219 11.2261 15.8556C11.2806 16.1341 11.4273 16.7942 11.4449 16.8399C11.4494 16.8517 11.3884 16.8754 11.2488 16.9161C9.68326 17.3726 8.27257 18.0001 7.23816 18.7004C6.78773 19.0052 6.45917 19.2728 6.12735 19.6047C5.49575 20.2366 5.12172 20.8837 5.00354 21.5489C4.97304 21.7206 4.96281 22.0644 4.98296 22.2401C5.05208 22.8427 5.32434 23.4279 5.81703 24.0329C5.97391 24.2256 6.41457 24.6638 6.63472 24.8461C7.7836 25.7974 9.36831 26.591 11.2311 27.1479C11.3253 27.1761 11.4075 27.2036 11.4139 27.209C11.4202 27.2144 11.3942 27.3536 11.356 27.5184C11.137 28.4633 11.0089 29.2902 10.9409 30.1984C10.9142 30.5557 10.9182 31.4775 10.9479 31.8064C11.0309 32.7262 11.2103 33.4353 11.5129 34.0399C11.9786 34.9705 12.6612 35.4863 13.6217 35.6334C13.845 35.6676 14.379 35.6678 14.6355 35.6338C16.0127 35.4514 17.5823 34.6845 19.1783 33.4141C19.5514 33.1172 19.8425 32.8637 20.3225 32.418L20.4199 32.3275L20.4527 32.363C20.5179 32.4337 21.0115 32.8826 21.2389 33.0781C22.393 34.0703 23.5631 34.8182 24.6228 35.2412C25.9263 35.7615 27.0458 35.8136 27.8994 35.3938C28.9135 34.895 29.5657 33.6939 29.7656 31.957C29.8465 31.2538 29.849 30.4343 29.7728 29.603C29.7107 28.926 29.5848 28.1514 29.424 27.4566C29.3499 27.137 29.3482 27.1259 29.3733 27.1259C29.4069 27.1259 29.9713 26.9439 30.2947 26.8288C32.4494 26.0621 34.0966 25.0338 34.997 23.8931C35.2324 23.5949 35.4845 23.1508 35.5897 22.8491C35.6506 22.6745 35.7068 22.4354 35.7268 22.2657C35.7508 22.0623 35.7383 21.7004 35.7008 21.5135C35.4613 20.319 34.4007 19.1827 32.61 18.2021C31.7581 17.7356 30.5855 17.26 29.5069 16.9435C29.3976 16.9115 29.3031 16.8806 29.2967 16.8749C29.2904 16.8692 29.3101 16.7576 29.3406 16.627C29.7596 14.8329 29.8799 13.0764 29.6782 11.6986C29.5364 10.7295 29.251 9.96598 28.81 9.37543C28.7157 9.24908 28.4781 9.00225 28.3493 8.89671C28.0025 8.61269 27.5639 8.42534 27.082 8.35546C26.9422 8.3352 26.4869 8.31861 26.3764 8.32976ZM26.9389 9.65649C27.0999 9.68455 27.2448 9.7341 27.3697 9.80385C27.503 9.87828 27.7321 10.1039 27.84 10.2669C28.184 10.7868 28.3923 11.5737 28.4535 12.5847C28.4729 12.9061 28.4616 13.6602 28.4319 14.0218C28.3898 14.5345 28.3112 15.1123 28.212 15.6382C28.1516 15.9587 28.0277 16.5226 28.0146 16.5368C28.0093 16.5425 27.9221 16.5284 27.8209 16.5054C26.7741 16.2674 25.4712 16.0625 24.0614 15.914L23.8972 15.8967L23.8353 15.8126C23.8013 15.7664 23.6632 15.5764 23.5285 15.3905C22.8871 14.5054 22.1856 13.6379 21.4958 12.8767C21.3884 12.7583 21.3006 12.656 21.3006 12.6494C21.3006 12.6375 21.6294 12.33 21.876 12.1113C23.4295 10.7333 24.9998 9.846 26.2084 9.66329C26.4247 9.6306 26.7717 9.62737 26.9389 9.65649ZM14.567 9.70283C15.3246 9.83644 16.197 10.2122 17.1358 10.8092C17.6492 11.1357 18.2283 11.5687 18.7592 12.023C18.9554 12.1909 19.3644 12.5613 19.4209 12.6224L19.4524 12.6563L19.3514 12.7642C18.649 13.5144 17.7465 14.6264 16.9702 15.6983L16.8265 15.8967L16.5941 15.92C15.3622 16.0432 14.0205 16.2509 12.9733 16.4804C12.8352 16.5107 12.7202 16.5334 12.7179 16.5309C12.7093 16.5217 12.5744 15.9319 12.5274 15.6983C12.3923 15.0265 12.3098 14.433 12.2561 13.748C12.2335 13.4588 12.2333 12.5737 12.2559 12.3179C12.3363 11.406 12.524 10.7431 12.8316 10.2848C13.0769 9.91922 13.3488 9.74431 13.7767 9.67669C13.9148 9.65488 14.383 9.67037 14.567 9.70283ZM20.5365 13.7656C21.0328 14.316 21.5714 14.9661 22.0404 15.5806L22.1961 15.7846L22.0806 15.7758C21.5724 15.7372 19.5404 15.7309 18.8212 15.7657C18.6744 15.7728 18.552 15.7763 18.5491 15.7735C18.5388 15.7632 19.0705 15.0919 19.4378 14.6513C19.768 14.2552 20.3554 13.5907 20.3753 13.5907C20.3772 13.5907 20.4498 13.6694 20.5365 13.7656ZM21.191 17.0533C21.909 17.0707 23.1562 17.1331 23.171 17.1524C23.1725 17.1543 23.2416 17.2578 23.3247 17.3824C24.1799 18.6652 25.0065 20.0807 25.7784 21.5844C25.8851 21.792 25.9723 21.9722 25.9723 21.9848C25.9723 22.0105 25.6774 22.6044 25.448 23.0407C24.8299 24.2166 24.0834 25.4847 23.3808 26.5525L23.1773 26.8618L23.0233 26.8712C22.6176 26.8959 22.1178 26.9211 21.7321 26.9362C21.1872 26.9575 19.4939 26.9576 18.9168 26.9363C18.3973 26.9172 17.7015 26.8827 17.6208 26.8722C17.5656 26.8649 17.562 26.8609 17.4137 26.6429C16.5547 25.3801 15.6539 23.8326 14.9287 22.3742L14.747 22.0088L14.8537 21.7857C15.0023 21.4751 15.3885 20.7298 15.6246 20.2984C16.1817 19.2802 16.7259 18.383 17.3742 17.4136L17.5496 17.1513L17.627 17.1432C17.6695 17.1387 17.8523 17.126 18.0331 17.115C19.1338 17.0479 20.1513 17.028 21.191 17.0533ZM15.8617 17.3209C15.8617 17.3252 15.7609 17.49 15.6378 17.687C15.1275 18.5037 14.615 19.3945 14.1896 20.2043C14.1194 20.3379 14.0576 20.4472 14.0523 20.4472C14.0324 20.4472 13.6788 19.5561 13.4732 18.9875C13.3175 18.5572 13.0806 17.8501 13.0806 17.816C13.0806 17.7901 13.1553 17.7721 13.7382 17.6572C14.2548 17.5554 14.8536 17.455 15.3753 17.3829C15.7274 17.3342 15.8127 17.3221 15.8514 17.315C15.8571 17.314 15.8617 17.3167 15.8617 17.3209ZM25.2188 17.3685C25.9694 17.4704 26.9352 17.6425 27.5589 17.7855L27.659 17.8084L27.6496 17.8516C27.6084 18.0398 27.1651 19.2708 26.9258 19.8612C26.7143 20.3832 26.6801 20.4618 26.6692 20.4508C26.6634 20.4451 26.5929 20.3172 26.5124 20.1667C26.0615 19.3231 25.35 18.1029 24.922 17.4393C24.8818 17.3769 24.8489 17.3239 24.8489 17.3215C24.8489 17.319 24.8628 17.3192 24.8797 17.3218C24.8967 17.3245 25.0493 17.3455 25.2188 17.3685ZM11.9345 18.5347C12.288 19.6199 12.725 20.7387 13.2194 21.8244L13.3012 22.004L13.1757 22.282C12.8803 22.9366 12.5224 23.8116 12.272 24.4914C12.1628 24.7879 11.8352 25.7561 11.7974 25.8942C11.7874 25.9305 11.7779 25.9411 11.7577 25.938C11.7014 25.9292 11.1712 25.7633 10.9297 25.6788C9.13014 25.0491 7.68535 24.1901 6.89568 23.2804C6.32856 22.627 6.15748 22.0623 6.3621 21.5192C6.80224 20.3511 8.63433 19.1205 11.1215 18.3225C11.3526 18.2484 11.769 18.1224 11.7859 18.1216C11.7935 18.1212 11.8603 18.3071 11.9345 18.5347ZM29.3836 18.2734C30.347 18.5736 31.3194 18.98 32.0645 19.394C33.3475 20.1069 34.2006 20.9423 34.4 21.6813C34.4424 21.8383 34.4427 22.1155 34.4006 22.2702C34.2381 22.8673 33.7088 23.4937 32.8429 24.1143C32.0947 24.6503 31.0296 25.1801 29.87 25.593C29.5933 25.6915 28.9978 25.8842 28.9927 25.8768C28.9915 25.8751 28.9253 25.6789 28.8455 25.441C28.4935 24.3911 28.1043 23.4319 27.4924 22.1068L27.434 21.9803L27.4757 21.8878C28.1037 20.4938 28.4843 19.5277 28.842 18.4193L28.9333 18.1363L29.0043 18.1569C29.0434 18.1682 29.2141 18.2206 29.3836 18.2734ZM20.0813 19.2446C19.1477 19.3388 18.3221 19.9107 17.8987 20.7565C17.5201 21.5127 17.5202 22.4368 17.8989 23.1912C18.1185 23.6286 18.4272 23.9787 18.8395 24.2578C19.0052 24.37 19.2862 24.5082 19.4785 24.5722C20.7913 25.0088 22.2202 24.4128 22.8219 23.1776C23.0127 22.7858 23.0971 22.4165 23.0971 21.9732C23.0971 21.5297 23.0138 21.1652 22.8216 20.7688C22.4076 19.9146 21.5637 19.3328 20.6087 19.2433C20.4362 19.2272 20.2494 19.2276 20.0813 19.2446ZM26.8226 23.8105C27.1553 24.5928 27.428 25.3135 27.682 26.0821L27.7238 26.2085L27.6735 26.2217C27.5097 26.2648 26.7877 26.4072 26.3559 26.4817C25.8822 26.5633 24.8646 26.7082 24.8522 26.6958C24.8497 26.6934 24.9074 26.5967 24.9803 26.4809C25.459 25.7211 26.1288 24.5573 26.5683 23.7215C26.6285 23.6068 26.6819 23.513 26.6869 23.5129C26.6919 23.5129 26.7529 23.6468 26.8226 23.8105ZM14.2245 23.8655C14.6589 24.6878 15.2116 25.6413 15.7006 26.412C15.7977 26.5651 15.8801 26.6979 15.8836 26.7072C15.897 26.7419 14.6595 26.5733 13.93 26.4409C13.5537 26.3726 13.0744 26.2749 13.0627 26.2642C13.0491 26.2516 13.3333 25.3954 13.5127 24.9088C13.5862 24.7093 13.7294 24.3398 13.8309 24.0877C13.9324 23.8355 14.0222 23.6123 14.0305 23.5915C14.0388 23.5708 14.0489 23.554 14.0529 23.5542C14.0569 23.5544 14.1341 23.6945 14.2245 23.8655ZM28.0951 27.5194C28.1261 27.6309 28.2344 28.1318 28.2794 28.3713C28.4572 29.3192 28.5316 30.1386 28.5162 30.9785C28.5084 31.4032 28.4888 31.6795 28.4441 31.9912C28.2678 33.2232 27.8213 34.0482 27.2115 34.2686C27.0295 34.3343 26.9188 34.3542 26.6885 34.3621C26.2888 34.3759 25.8946 34.3061 25.3894 34.132C24.2134 33.7266 22.8761 32.8409 21.5097 31.5625L21.3283 31.3928L21.3727 31.3411C21.3971 31.3126 21.525 31.167 21.657 31.0176C22.3671 30.2135 23.2073 29.1315 23.8899 28.1423C23.9091 28.1145 23.9391 28.1096 24.3351 28.0701C24.7811 28.0256 25.4622 27.9424 25.8558 27.8844C26.4871 27.7913 27.4935 27.606 27.9246 27.5036C27.9999 27.4857 28.0659 27.4704 28.0712 27.4696C28.0765 27.4687 28.0872 27.4911 28.0951 27.5194ZM13.1324 27.618C14.187 27.8291 15.2873 27.9864 16.4371 28.0905C16.6518 28.11 16.8342 28.1282 16.8424 28.131C16.8506 28.1338 16.9182 28.2213 16.9926 28.3255C17.6177 29.2003 18.4531 30.2409 19.1486 31.0111C19.4528 31.348 19.4922 31.3925 19.4922 31.3991C19.4922 31.4022 19.392 31.4974 19.2696 31.6106C18.4618 32.3579 17.6533 32.9679 16.8481 33.4376C15.3565 34.3077 13.998 34.5857 13.2868 34.1662C12.8279 33.8957 12.4831 33.2231 12.3274 32.2953C12.1278 31.1054 12.224 29.6009 12.6075 27.9128C12.6832 27.5794 12.6951 27.5365 12.7117 27.5365C12.7192 27.5365 12.9085 27.5732 13.1324 27.618ZM22.2185 28.2265C22.2185 28.2489 21.5663 29.0919 21.2541 29.473C20.928 29.871 20.4239 30.4516 20.4083 30.4472C20.3821 30.4397 19.7951 29.7747 19.4517 29.3635C19.0738 28.9109 18.5538 28.2503 18.5659 28.2382C18.5693 28.2349 18.8453 28.2397 19.1794 28.2489C19.7876 28.2657 21.4737 28.2576 21.9171 28.2356C22.0264 28.2303 22.1389 28.2247 22.1671 28.2233C22.1954 28.2219 22.2185 28.2234 22.2185 28.2265Z" fill="#00D8FF"/>
</svg>
