<svg width="42" height="42" viewBox="0 0 42 42" fill="none" xmlns="http://www.w3.org/2000/svg">
<rect x="0.563599" width="41.4365" height="41.4365" rx="13" fill="white"/>
<path d="M16.7369 15.3196L23.8814 15.3212V17.0991L18.5365 17.0863V19.2877L23.8814 19.2789V20.9511H18.5365V23.1077C18.5365 23.1077 22.3756 23.1149 23.8814 23.0949V24.8872L16.7473 24.8816L16.7369 15.3196Z" fill="#F8BC0E"/>
<path d="M34.0245 25.1441C33.7187 24.8479 32.8493 23.9745 32.8493 23.9745C32.8493 23.9745 32.7909 24.0402 32.5579 24.2019C30.7872 25.429 28.4786 25.3874 26.7624 24.1194C24.8972 22.741 24.4457 20.2842 25.0613 18.4487C26.0507 15.4997 30.0076 13.9955 32.8077 16.2393C32.8706 16.2897 32.9294 16.2897 32.9694 16.3298C32.7494 16.7588 32.3607 17.322 32.0488 17.6906C32.0306 17.7122 32.0088 17.6506 31.9136 17.5938C31.8375 17.5401 31.7599 17.4881 31.6846 17.4329C29.681 15.9776 26.88 17.1383 26.4526 19.5422C26.3221 20.2778 26.3957 21.0023 26.8112 21.6571C26.9356 21.8532 27.0457 22.0312 27.2298 22.2607C27.8999 23.0956 28.766 23.4966 29.8387 23.4462C31.1851 23.383 32.1929 22.7057 32.7501 21.5378C33.2736 20.4403 33.1727 19.2836 32.4699 18.2334C32.3263 18.0289 32.1704 17.9774 32.289 17.6906C32.372 17.4899 32.9084 16.8251 33.0495 16.69C33.2417 16.5058 33.2496 16.5928 33.4097 16.77C34.0885 17.5217 34.4407 18.4031 34.6056 19.4237C34.8242 20.7757 34.4847 21.9349 33.7579 23.0283C33.6354 23.2125 33.5698 23.2541 33.5698 23.2541C33.5698 23.2541 34.4279 24.1042 34.7409 24.4276C34.5744 24.739 34.3295 24.9712 34.0237 25.1433L34.0245 25.1441Z" fill="#E74235"/>
<path d="M10.8813 25.121C10.1296 25.1082 8.99935 24.9241 8.08598 24.0771C7.67482 23.6962 7.43357 23.2542 7.19342 22.7739L8.67434 22.0134C9.23469 22.9812 9.71554 23.4717 10.9374 23.4872C11.4953 23.4944 12.0476 23.5336 12.5832 23.3351C12.8105 23.251 13.025 23.1485 13.2036 22.9812C13.7935 22.4305 13.7135 21.5636 13.0258 21.1457C12.56 20.8623 12.0348 20.7695 11.5025 20.7078C10.7997 20.627 10.1064 20.5061 9.43322 20.2708C8.45741 19.9289 7.82982 19.2821 7.68573 18.2495C7.53284 17.148 7.91227 16.2755 8.87607 15.6551C10.3866 14.6825 13.1499 14.8426 14.4115 16.0041C14.6389 16.2138 15.1183 16.8502 15.1183 16.8502L13.5638 17.6907C13.5638 17.6907 13.188 17.242 13.0266 17.1072C12.2141 16.4284 11.1711 16.4396 10.1769 16.8254C9.71819 17.0031 9.43322 17.3409 9.43161 17.8581C9.43001 18.3728 9.78544 18.5969 10.1985 18.7698C10.7284 18.9916 11.2992 18.9964 11.8539 19.0836C12.4351 19.1749 13.0122 19.2789 13.5638 19.4855C14.5788 19.8657 15.2496 20.5557 15.3697 21.6652C15.5098 22.9572 15.0447 23.9683 13.8712 24.5934C13.0739 25.0177 12.2045 25.1338 10.8813 25.1202V25.121Z" fill="#4187F1"/>
<path d="M34.0244 25.1442C34.3302 24.9721 34.5751 24.7399 34.7416 24.4285C35.0994 24.2604 35.3892 24.2957 35.687 24.6055C36.5732 25.5276 37.4897 26.421 38.3943 27.3255C38.7777 27.709 38.7809 27.8795 38.4095 28.2549C38.1942 28.4727 37.9764 28.6888 37.7595 28.9057C37.5153 29.1499 37.2744 29.1435 37.031 28.9001C36.0512 27.9195 35.077 26.9325 34.0852 25.9639C33.8002 25.6861 33.8771 25.4284 34.0244 25.1434V25.1442Z" fill="#494F57"/>
<path d="M33.179 15.7286C33.3305 15.4994 33.4896 15.2491 33.4896 15.2491L32.9693 14.9289L34.6463 14.0884V15.9295L34.09 15.6093C34.09 15.6093 33.9494 15.849 33.789 16.1032C33.2614 16.9426 32.7241 17.7729 32.1768 18.6016C31.6741 19.3709 31.1682 20.1385 30.6847 20.9198C30.5318 21.1664 30.4005 21.2424 30.1211 21.1031C29.7289 20.907 29.3094 20.7677 28.9092 20.5868C28.7171 20.4996 28.6042 20.534 28.4745 20.7021C28.0687 21.2296 27.6452 21.7427 27.2281 22.2615C27.0456 22.0533 26.9255 21.8532 26.8095 21.6579C27.2778 21.0615 27.7541 20.4707 28.2095 19.8648C28.3696 19.6518 28.5025 19.5734 28.7651 19.7095C29.1421 19.904 29.5464 20.0473 29.9338 20.2234C30.1243 20.3098 30.2516 20.2826 30.3637 20.0953C30.5766 19.7423 30.8152 19.4045 31.0289 19.0515C31.7168 17.9217 32.448 16.8327 33.179 15.7286Z" fill="#3BA556"/>
</svg>
