<svg width="42" height="42" viewBox="0 0 42 42" fill="none" xmlns="http://www.w3.org/2000/svg">
<rect x="0.602325" width="41.3977" height="41.3977" rx="13" fill="white"/>
<path d="M25.0392 8.27966C25.1446 8.27966 25.249 8.27966 25.3544 8.27966C25.4198 8.34508 25.4803 8.41723 25.5526 8.47399C28.2188 10.5721 30.885 12.6693 33.5561 14.7616C33.6966 14.8723 33.7366 14.9742 33.7151 15.1522C33.438 17.4283 33.1735 19.7063 32.9012 21.9824C32.5948 24.55 32.2805 27.1176 31.9819 29.6862C31.9575 29.893 31.8931 29.9748 31.6921 30.0306C26.7734 31.3957 21.8577 32.7675 16.9401 34.1374C16.1603 34.3548 15.3776 34.5607 14.5901 34.7742C14.5647 34.7165 14.5471 34.678 14.5325 34.6386C13.3067 31.2677 12.081 27.8959 10.8572 24.5241C10.8191 24.4192 10.7899 24.3095 10.7752 24.1999C10.5586 22.6116 10.3487 21.0224 10.1301 19.4341C9.82466 17.2051 9.51236 14.9771 9.20397 12.7491C9.09662 11.9757 8.99123 11.2013 8.88193 10.4067C9.55434 10.3172 10.2023 10.2287 10.8503 10.146C12.8012 9.89583 14.7521 9.65148 16.7029 9.39944C18.9046 9.11564 21.1053 8.828 23.307 8.53748C23.8857 8.46148 24.4625 8.36624 25.0392 8.28062V8.27966ZM31.6179 15.184C31.5379 15.1109 31.5027 15.0743 31.4618 15.0426C29.2855 13.3494 27.1101 11.6563 24.9299 9.9699C24.8528 9.91026 24.7182 9.88621 24.6176 9.89871C22.7536 10.1354 20.8916 10.3845 19.0285 10.6231C16.74 10.9165 14.4515 11.2022 12.163 11.4918C11.6623 11.5553 11.1617 11.6207 10.6278 11.689C10.9089 12.3634 11.187 13.0012 11.4388 13.6496C11.5306 13.8853 11.6408 13.9449 11.8995 13.9055C13.5224 13.6573 15.1503 13.4331 16.7752 13.1965C18.1668 12.9944 19.5682 12.8367 20.9453 12.5606C21.6821 12.4134 22.1515 12.6039 22.6365 13.132C23.5744 14.1537 24.5747 15.1205 25.5594 16.0998C25.6336 16.1739 25.7907 16.2181 25.8961 16.2008C26.8008 16.0517 27.7025 15.8853 28.6052 15.7237C29.5909 15.5466 30.5766 15.3696 31.6179 15.183V15.184ZM25.4979 20.8502C25.4813 20.805 25.4794 20.7867 25.4696 20.7742C24.3532 19.4024 23.2377 18.0296 22.1154 16.6635C22.0685 16.6058 21.9485 16.5673 21.8714 16.5789C21.0936 16.6953 20.3177 16.8194 19.5419 16.9512C17.5783 17.2859 15.6167 17.6275 13.6542 17.9651C13.2111 18.0411 12.7671 18.1142 12.2791 18.197C12.6011 19.0589 12.9105 19.8853 13.2169 20.7039C13.297 20.6982 13.3321 20.6991 13.3663 20.6934C14.9717 20.3942 16.578 20.0988 18.1814 19.79C18.402 19.7477 18.525 19.7795 18.6421 19.9815C19.012 20.6154 19.4092 21.235 19.7878 21.8641C19.8737 22.0065 19.9723 22.0363 20.1304 21.9988C20.5295 21.9036 20.9326 21.8237 21.3337 21.7381C22.7165 21.4437 24.1004 21.1494 25.4979 20.8521V20.8502ZM14.8897 28.0739C16.6668 27.6496 18.4166 27.2321 20.2006 26.8059C19.78 25.993 19.3828 25.2186 18.9788 24.4481C18.8948 24.2884 18.7465 24.297 18.5904 24.3326C17.2621 24.6318 15.9339 24.9271 14.6057 25.2244C14.4056 25.2696 14.2065 25.3168 13.9665 25.3726C14.2788 26.2865 14.5784 27.1648 14.8897 28.0748V28.0739Z" fill="#FF0000"/>
</svg>
