<svg width="43" height="42" viewBox="0 0 43 42" fill="none" xmlns="http://www.w3.org/2000/svg">
<rect x="0.826202" width="41.4048" height="41.4048" rx="13" fill="white"/>
<path d="M21.5062 34.7801C29.2679 34.7801 35.56 28.4774 35.56 20.7025C35.56 12.9276 29.2679 6.62488 21.5062 6.62488C13.7445 6.62488 7.45236 12.9276 7.45236 20.7025C7.45236 28.4774 13.7445 34.7801 21.5062 34.7801Z" fill="#609CEC"/>
<path d="M25.3555 34.2453C30.5244 32.7743 34.4793 28.4133 35.3706 23.0172L28.0738 15.708L13.9602 22.8307L25.3555 34.2453Z" fill="#5792D3"/>
<path d="M30.166 19.5445C30.716 24.2381 27.3135 27.0387 22.6527 27.6231C20.6303 27.8764 20.2222 26.4994 19.8886 25.0921C19.4829 23.3779 18.8662 22.7912 16.9043 23.1642C15.518 23.4276 13.7958 23.5496 13.2388 21.8221C12.6608 20.031 13.1278 18.2716 14.3062 16.782C18.1556 11.9159 29.2878 12.0542 30.1652 19.5445H30.166Z" fill="#FCFDFD"/>
<path d="M22.6915 15.8884C22.5666 16.6002 22.2609 17.1433 21.4898 17.1768C20.69 17.2117 20.3502 16.6996 20.3231 15.9746C20.2951 15.2115 20.69 14.7802 21.4681 14.7585C22.2493 14.7367 22.6224 15.1664 22.6907 15.8884H22.6915Z" fill="#EC7F68"/>
<path d="M24.825 15.708C25.5813 15.7865 25.97 16.2333 25.9522 16.9684C25.9374 17.5924 25.6093 18.0672 24.9444 18.1224C24.1772 18.1861 23.7397 17.7587 23.7032 17.0057C23.6667 16.2566 24.0895 15.8378 24.8257 15.708H24.825Z" fill="#71A7EA"/>
<path d="M25.0832 22.3732C25.9544 22.4618 26.3523 22.8861 26.2926 23.6508C26.2391 24.3307 25.7883 24.64 25.1351 24.6299C24.3982 24.619 23.8776 24.2817 23.9009 23.4907C23.9234 22.7097 24.4649 22.4136 25.0832 22.3732Z" fill="#F4D166"/>
<path d="M18.2099 16.1362C18.9104 16.2497 19.4333 16.5543 19.4271 17.3547C19.4224 17.995 19.1525 18.5024 18.4481 18.5172C17.6816 18.5328 17.2798 18.0727 17.2441 17.3135C17.2123 16.6421 17.5218 16.2357 18.2107 16.137L18.2099 16.1362Z" fill="#9ED164"/>
<path d="M26.101 21.3947C25.4873 21.1165 24.9916 20.7077 25.1026 19.9501C25.2003 19.2841 25.6875 18.9989 26.3415 19.0254C27.049 19.0533 27.3926 19.525 27.3756 20.1451C27.3554 20.8841 26.831 21.2665 26.1017 21.3939L26.101 21.3947Z" fill="#ABB3BA"/>
<path d="M15.7204 20.0201C16.334 20.0403 16.469 20.4234 16.4907 20.8695C16.5109 21.2759 16.2821 21.5331 15.8825 21.5658C15.4714 21.5992 15.2177 21.3373 15.182 20.9573C15.1409 20.5221 15.2604 20.1274 15.7204 20.0201Z" fill="#8FB2DC"/>
</svg>
