<svg width="43" height="43" viewBox="0 0 43 43" fill="none" xmlns="http://www.w3.org/2000/svg">
<rect x="0.86731" y="0.86731" width="41.4365" height="41.4365" rx="13" fill="white"/>
<path d="M20.1344 35.6742C19.8447 35.5555 19.532 35.5839 19.2316 35.5303C13.6737 34.5416 9.86879 31.3904 8.18385 26.0153C6.62658 21.0477 7.74579 16.5073 11.2609 12.6439C13.426 10.2638 16.1598 8.86089 19.3493 8.45426C23.593 7.91361 27.3382 9.08297 30.4941 11.9914C32.8739 14.1847 34.2661 16.9208 34.7294 20.1287C34.7707 20.4128 34.7584 20.7054 34.8547 20.9818V23.0655C34.7768 23.0992 34.8058 23.1712 34.8005 23.2279C34.7141 24.1774 34.5642 25.1194 34.2531 26.0192C32.4099 31.3483 28.7304 34.5409 23.1695 35.5303C22.8522 35.5869 22.5235 35.5663 22.2146 35.6742H20.1344ZM21.2047 34.7101C28.1914 34.7063 33.8838 29.0073 33.893 22.0064C33.9014 15.0033 28.1907 9.27978 21.1971 9.28361C14.2104 9.28744 8.51793 14.9864 8.50952 21.9873C8.50112 28.9904 14.2119 34.7139 21.2047 34.7101Z" fill="#01769D"/>
<path d="M18.3354 28.3743C18.08 27.6568 17.8316 26.9645 17.5869 26.2707C16.5044 23.2068 15.4227 20.1429 14.3409 17.0782C14.2665 16.8668 14.3424 16.7612 14.5687 16.7612C14.8883 16.7612 15.2094 16.7497 15.5282 16.7658C15.7132 16.7749 15.7552 16.7053 15.746 16.5375C15.7338 16.3247 15.7308 16.1095 15.7468 15.8973C15.7621 15.6975 15.6956 15.6416 15.4945 15.6431C14.3302 15.6531 13.1659 15.6485 12.0023 15.6462C11.9175 15.6462 11.8288 15.6707 11.7455 15.6247C15.3164 10.0697 23.5546 8.61469 28.9871 13.6413C28.7157 13.6919 28.4542 13.6911 28.205 13.7692C27.309 14.0503 26.6752 14.8896 26.6699 15.8261C26.6684 16.0551 26.7555 16.2588 26.8832 16.4464C27.2471 16.9832 27.6332 17.507 27.9703 18.0607C28.8632 19.5287 29.0131 21.1139 28.6461 22.7672C28.3449 24.1242 27.7991 25.4031 27.3633 26.7164C27.1813 27.2632 26.9833 27.8046 26.7746 28.3973C26.4765 27.5557 26.1936 26.7631 25.9138 25.969C24.8642 22.997 23.8153 20.025 22.7664 17.0529C22.6981 16.8589 22.7672 16.7619 22.9736 16.7619C23.3558 16.7619 23.7381 16.755 24.1195 16.765C24.2724 16.7688 24.3198 16.7198 24.3122 16.5697C24.3007 16.33 24.2992 16.0888 24.3122 15.8491C24.3221 15.6753 24.248 15.6454 24.0936 15.6462C21.8895 15.65 19.6855 15.6508 17.4814 15.6454C17.3056 15.6454 17.2467 15.6944 17.2582 15.8705C17.272 16.0919 17.275 16.3162 17.2582 16.5375C17.2422 16.7367 17.3255 16.7719 17.5013 16.7665C17.892 16.7543 18.2834 16.768 18.6741 16.7604C18.8101 16.7573 18.8728 16.7979 18.9202 16.9335C19.4707 18.5095 20.0287 20.0824 20.5876 21.6553C20.625 21.7618 20.6312 21.8575 20.5937 21.9647C19.856 24.0676 19.1198 26.1712 18.3836 28.274C18.3751 28.2985 18.3614 28.3207 18.3354 28.3751V28.3743Z" fill="#01769D"/>
<path d="M21.2345 23.4915C21.6366 24.6256 22.028 25.7291 22.4187 26.8342C23.1075 28.7846 23.7917 30.7359 24.4889 32.6833C24.5661 32.8985 24.5218 32.9521 24.31 33.0103C22.1664 33.5999 20.0319 33.5785 17.9005 32.9505C17.7644 32.9107 17.6643 32.9 17.7407 32.6986C18.889 29.6783 20.0273 26.6542 21.1687 23.6317C21.181 23.5987 21.1985 23.5673 21.2352 23.4915H21.2345Z" fill="#01769D"/>
<path d="M26.6448 32.0482C26.5745 31.9456 26.6594 31.8652 26.6892 31.7817C28.0225 28.0424 29.3573 24.3045 30.6928 20.566C31.1385 19.3193 31.3243 18.0404 31.1813 16.7186C31.1745 16.6528 31.1806 16.5854 31.1806 16.4621C31.452 16.8871 31.6293 17.2999 31.796 17.7149C32.4428 19.3246 32.7226 21.0017 32.5987 22.7301C32.3801 25.7741 31.1477 28.3456 28.9161 30.427C28.2319 31.0649 27.4812 31.6171 26.6425 32.0405L26.6456 32.0467L26.6448 32.0482Z" fill="#01769D"/>
<path d="M10.6931 17.5192C12.4162 22.3981 14.1172 27.2157 15.8274 32.0577C11.0937 29.6723 8.22528 23.4556 10.6931 17.5192Z" fill="#01769D"/>
<path d="M26.6471 32.0424C26.6339 32.0495 26.6206 32.0557 26.6074 32.0628C26.6082 32.0548 26.61 32.0469 26.6109 32.0389C26.6242 32.0424 26.6374 32.046 26.6507 32.0495L26.6471 32.0424Z" fill="#01769D"/>
</svg>
