<svg width="5754" height="400" preserveAspectRatio="none" viewBox="0 0 5754 400" fill="none" xmlns="http://www.w3.org/2000/svg">
<path d="M2105.5 252.4C2121.2 256.3 2129.7 256.9 2140.5 256.5C2146.38 256.446 2152.89 253.129 2158.33 250.974C2221.97 225.775 2354.5 173.299 2428.67 159.952C2522.03 143.15 2512.95 136.688 2559.63 128.933C2606.31 121.179 2742.67 103.029 2804.71 128.933C2879 159.952 3077.02 127.641 3121.11 103.085C3165.2 78.5285 3295.57 -33.4511 3358 9.8555C3413.5 48.3555 3454.26 -10.7463 3533.46 32.001C3558.2 51.3555 3569.72 52.8555 3597 63.0194C3612.5 68.7948 3631 77.7 3631 77.7C3631 77.7 3659 90.4 3668.2 93.8C3687.2 100.6 3690.3 102.1 3705.5 111.4C3719.2 119.9 3726.9 123.3 3739 126.6C3747.2 128.8 3750.6 129.2 3763.5 129.2C3776.5 129.3 3780 128.9 3790 126.5C3816.9 120.1 3819.7 119.7 3833 120.2C3846.5 120.8 3852.2 122 3866.3 127.5C3885 134.7 3901.5 138.1 3925.5 139.4C3946.1 140.5 3957.3 142.1 3966.7 145C3977 148.3 3995.5 157.4 4010 166.4C4026.9 176.9 4041.1 184.7 4048.4 187.8C4062.9 193.8 4081.6 198.3 4113 203.3C4151.3 209.4 4161 209.9 4195.2 207.3C4207.4 206.4 4222.5 205.9 4230.5 206.1C4246.8 206.7 4253.7 208.6 4270.2 217.1C4284.7 224.5 4291.5 229.2 4328.4 257.8C4358.4 281 4381.8 295.9 4404.7 306.4C4422.6 314.5 4431.5 317.2 4453 320.9C4462.6 322.5 4474.3 324.5 4479 325.4C4483.7 326.2 4497.2 328.4 4509 330.4C4520.8 332.3 4549.9 338.4 4573.5 343.8C4597.2 349.3 4621.2 354.7 4627 355.8C4741.6 378.3 4754.6 380.3 4767.6 377.9C4783.2 375 4792.4 370.7 4805.4 360.2C4827.3 342.6 4843.1 334.3 4935.5 292.2C4968.03 277.392 5001.89 265.884 5035 252.5C5122.8 217.736 5213.28 177.757 5306.67 160.952C5400.03 144.15 5390.95 137.688 5437.63 129.933C5484.31 122.179 5620.67 104.029 5682.71 129.933C5700.59 137.401 5725.65 141.198 5754 142.316V400H0V142.391C89.2315 145.501 209.882 122.591 243.108 104.085C287.196 79.5285 417.571 -32.4511 480 10.8555C535.5 49.3555 576.26 -9.74625 655.461 33.001C680.204 52.3555 698 55.9387 719 64.0194C734.339 69.9217 736.5 64.0194 766.5 77.9C796.5 91.7807 803.9 87 843.5 88.5C896.4 90.5 920.3 95.2 951.5 109.7C958.7 113.1 966.8 116.4 969.5 117.1C980.9 120.2 993 118.6 1026.1 109.5C1047.6 103.6 1053.3 102.5 1062.5 102.5C1077.4 102.5 1085.5 106 1105.4 120.8C1130.3 139.4 1144.2 147.9 1167.5 159.1C1175.2 162.8 1183.3 167.2 1185.5 169C1187.7 170.8 1192 173.5 1195 175.1C1202.8 179.1 1217.8 179.6 1234.1 176.5C1245.4 174.4 1260.7 170.6 1268.4 168C1285.2 162.4 1328.5 150 1359 142C1393.6 132.9 1423 124.8 1456.5 115C1464.8 112.6 1480.7 108.6 1492 106.1C1547.3 94 1560.4 94.1 1596.5 107.5C1603.6 110.1 1611.8 113.3 1614.5 114.5C1622.6 118 1665.8 130.9 1689.5 136.8C1724.8 145.7 1736.4 147.7 1752 147.9C1766.7 148 1765.1 148.4 1792.5 138C1815.2 129.4 1846.5 127.7 1874 133.6C1894.1 138 1907.8 145.1 1936.4 165.9C1965.1 186.8 1992.5 202.2 2022.5 214.5C2085.4 240.2 2087.3 247.8 2105.5 252.4Z" fill="#D9D9D9"/>
</svg>
